<svg width="229" height="60" viewBox="0 0 229 60" fill="none" xmlns="http://www.w3.org/2000/svg">
<g filter="url(#filter0_ddd_1_4410)">
<g clip-path="url(#clip0_1_4410)">
<rect x="5" y="4" width="219" height="50" rx="25" fill="#FE0150"/>
<path d="M36.065 34V23.5H40.025C41.115 23.5 41.94 23.755 42.5 24.265C43.06 24.775 43.34 25.415 43.34 26.185C43.34 26.855 43.16 27.39 42.8 27.79C42.44 28.18 42.005 28.445 41.495 28.585C41.895 28.665 42.25 28.825 42.56 29.065C42.88 29.305 43.13 29.605 43.31 29.965C43.49 30.325 43.58 30.715 43.58 31.135C43.58 31.675 43.445 32.165 43.175 32.605C42.915 33.035 42.53 33.375 42.02 33.625C41.51 33.875 40.885 34 40.145 34H36.065ZM37.655 28H39.83C40.44 28 40.905 27.86 41.225 27.58C41.545 27.29 41.705 26.895 41.705 26.395C41.705 25.905 41.545 25.515 41.225 25.225C40.915 24.935 40.44 24.79 39.8 24.79H37.655V28ZM37.655 32.695H39.935C40.575 32.695 41.07 32.545 41.42 32.245C41.78 31.945 41.96 31.525 41.96 30.985C41.96 30.445 41.775 30.02 41.405 29.71C41.035 29.39 40.535 29.23 39.905 29.23H37.655V32.695ZM45.7828 34V23.5H52.4578V24.79H47.3728V28.06H52.0078V29.32H47.3728V32.71H52.4578V34H45.7828ZM59.4921 34.18C58.4521 34.18 57.5521 33.955 56.7921 33.505C56.0421 33.045 55.4621 32.41 55.0521 31.6C54.6421 30.78 54.4371 29.835 54.4371 28.765C54.4371 27.685 54.6421 26.74 55.0521 25.93C55.4621 25.11 56.0421 24.47 56.7921 24.01C57.5521 23.55 58.4521 23.32 59.4921 23.32C60.7221 23.32 61.7271 23.62 62.5071 24.22C63.2871 24.82 63.7821 25.66 63.9921 26.74H62.2221C62.0821 26.13 61.7821 25.645 61.3221 25.285C60.8621 24.925 60.2471 24.745 59.4771 24.745C58.4271 24.745 57.5971 25.105 56.9871 25.825C56.3771 26.535 56.0721 27.515 56.0721 28.765C56.0721 30.005 56.3771 30.98 56.9871 31.69C57.5971 32.4 58.4271 32.755 59.4771 32.755C60.2471 32.755 60.8621 32.585 61.3221 32.245C61.7821 31.905 62.0821 31.44 62.2221 30.85H63.9921C63.7821 31.89 63.2871 32.705 62.5071 33.295C61.7271 33.885 60.7221 34.18 59.4921 34.18ZM71.0449 34.18C70.0049 34.18 69.0949 33.95 68.3149 33.49C67.5349 33.03 66.9249 32.395 66.4849 31.585C66.0449 30.765 65.8249 29.82 65.8249 28.75C65.8249 27.68 66.0449 26.74 66.4849 25.93C66.9249 25.11 67.5349 24.47 68.3149 24.01C69.0949 23.55 70.0049 23.32 71.0449 23.32C72.0849 23.32 72.9949 23.55 73.7749 24.01C74.5549 24.47 75.1599 25.11 75.5899 25.93C76.0299 26.74 76.2499 27.68 76.2499 28.75C76.2499 29.82 76.0299 30.765 75.5899 31.585C75.1599 32.395 74.5549 33.03 73.7749 33.49C72.9949 33.95 72.0849 34.18 71.0449 34.18ZM71.0449 32.755C71.7649 32.755 72.3899 32.595 72.9199 32.275C73.4599 31.955 73.8799 31.495 74.1799 30.895C74.4799 30.295 74.6299 29.58 74.6299 28.75C74.6299 27.92 74.4799 27.205 74.1799 26.605C73.8799 26.005 73.4599 25.545 72.9199 25.225C72.3899 24.905 71.7649 24.745 71.0449 24.745C70.3249 24.745 69.6949 24.905 69.1549 25.225C68.6149 25.545 68.1949 26.005 67.8949 26.605C67.6049 27.205 67.4599 27.92 67.4599 28.75C67.4599 29.58 67.6049 30.295 67.8949 30.895C68.1949 31.495 68.6149 31.955 69.1549 32.275C69.6949 32.595 70.3249 32.755 71.0449 32.755ZM78.4812 34V23.5H80.3562L83.9112 30.49L87.4512 23.5H89.3262V34H87.7362V26.245L84.5262 32.5H83.2962L80.0712 26.26V34H78.4812ZM91.9197 34V23.5H98.5947V24.79H93.5097V28.06H98.1447V29.32H93.5097V32.71H98.5947V34H91.9197ZM105.188 34V23.5H107.063L110.618 30.49L114.158 23.5H116.033V34H114.443V26.245L111.233 32.5H110.003L106.778 26.26V34H105.188ZM121.297 34V30.13L117.817 23.5H119.617L122.092 28.57L124.552 23.5H126.337L122.887 30.13V34H121.297ZM132.35 34V23.5H136.31C137.4 23.5 138.225 23.755 138.785 24.265C139.345 24.775 139.625 25.415 139.625 26.185C139.625 26.855 139.445 27.39 139.085 27.79C138.725 28.18 138.29 28.445 137.78 28.585C138.18 28.665 138.535 28.825 138.845 29.065C139.165 29.305 139.415 29.605 139.595 29.965C139.775 30.325 139.865 30.715 139.865 31.135C139.865 31.675 139.73 32.165 139.46 32.605C139.2 33.035 138.815 33.375 138.305 33.625C137.795 33.875 137.17 34 136.43 34H132.35ZM133.94 28H136.115C136.725 28 137.19 27.86 137.51 27.58C137.83 27.29 137.99 26.895 137.99 26.395C137.99 25.905 137.83 25.515 137.51 25.225C137.2 24.935 136.725 24.79 136.085 24.79H133.94V28ZM133.94 32.695H136.22C136.86 32.695 137.355 32.545 137.705 32.245C138.065 31.945 138.245 31.525 138.245 30.985C138.245 30.445 138.06 30.02 137.69 29.71C137.32 29.39 136.82 29.23 136.19 29.23H133.94V32.695ZM142.067 34V23.5H148.742V24.79H143.657V28.06H148.292V29.32H143.657V32.71H148.742V34H142.067ZM154.562 34.18C153.792 34.18 153.117 34.045 152.537 33.775C151.957 33.505 151.502 33.12 151.172 32.62C150.852 32.12 150.687 31.525 150.677 30.835H152.357C152.367 31.395 152.562 31.87 152.942 32.26C153.322 32.65 153.857 32.845 154.547 32.845C155.157 32.845 155.632 32.7 155.972 32.41C156.322 32.11 156.497 31.73 156.497 31.27C156.497 30.9 156.412 30.6 156.242 30.37C156.082 30.14 155.857 29.95 155.567 29.8C155.287 29.65 154.962 29.515 154.592 29.395C154.222 29.275 153.832 29.145 153.422 29.005C152.612 28.735 152.002 28.385 151.592 27.955C151.192 27.525 150.992 26.96 150.992 26.26C150.982 25.67 151.117 25.155 151.397 24.715C151.687 24.275 152.087 23.935 152.597 23.695C153.117 23.445 153.722 23.32 154.412 23.32C155.092 23.32 155.687 23.445 156.197 23.695C156.717 23.945 157.122 24.295 157.412 24.745C157.702 25.185 157.852 25.7 157.862 26.29H156.182C156.182 26.02 156.112 25.765 155.972 25.525C155.832 25.275 155.627 25.07 155.357 24.91C155.087 24.75 154.757 24.67 154.367 24.67C153.867 24.66 153.452 24.785 153.122 25.045C152.802 25.305 152.642 25.665 152.642 26.125C152.642 26.535 152.762 26.85 153.002 27.07C153.242 27.29 153.572 27.475 153.992 27.625C154.412 27.765 154.892 27.93 155.432 28.12C155.952 28.29 156.417 28.495 156.827 28.735C157.237 28.975 157.562 29.29 157.802 29.68C158.052 30.07 158.177 30.565 158.177 31.165C158.177 31.695 158.042 32.19 157.772 32.65C157.502 33.1 157.097 33.47 156.557 33.76C156.017 34.04 155.352 34.18 154.562 34.18ZM162.645 34V24.79H159.54V23.5H167.325V24.79H164.235V34H162.645Z" fill="white"/>
<path d="M188 21L186.59 22.41L192.17 28H180V30H192.17L186.59 35.59L188 37L196 29L188 21Z" fill="white"/>
</g>
</g>
<defs>
<filter id="filter0_ddd_1_4410" x="0" y="0" width="229" height="60" filterUnits="userSpaceOnUse" color-interpolation-filters="sRGB">
<feFlood flood-opacity="0" result="BackgroundImageFix"/>
<feColorMatrix in="SourceAlpha" type="matrix" values="0 0 0 0 0 0 0 0 0 0 0 0 0 0 0 0 0 0 127 0" result="hardAlpha"/>
<feOffset dy="1"/>
<feGaussianBlur stdDeviation="2.5"/>
<feComposite in2="hardAlpha" operator="out"/>
<feColorMatrix type="matrix" values="0 0 0 0 0 0 0 0 0 0 0 0 0 0 0 0 0 0 0.1 0"/>
<feBlend mode="normal" in2="BackgroundImageFix" result="effect1_dropShadow_1_4410"/>
<feColorMatrix in="SourceAlpha" type="matrix" values="0 0 0 0 0 0 0 0 0 0 0 0 0 0 0 0 0 0 127 0" result="hardAlpha"/>
<feOffset dy="2"/>
<feGaussianBlur stdDeviation="1"/>
<feComposite in2="hardAlpha" operator="out"/>
<feColorMatrix type="matrix" values="0 0 0 0 0 0 0 0 0 0 0 0 0 0 0 0 0 0 0.07 0"/>
<feBlend mode="normal" in2="effect1_dropShadow_1_4410" result="effect2_dropShadow_1_4410"/>
<feColorMatrix in="SourceAlpha" type="matrix" values="0 0 0 0 0 0 0 0 0 0 0 0 0 0 0 0 0 0 127 0" result="hardAlpha"/>
<feMorphology radius="2" operator="erode" in="SourceAlpha" result="effect3_dropShadow_1_4410"/>
<feOffset dy="3"/>
<feGaussianBlur stdDeviation="0.5"/>
<feComposite in2="hardAlpha" operator="out"/>
<feColorMatrix type="matrix" values="0 0 0 0 0 0 0 0 0 0 0 0 0 0 0 0 0 0 0.05 0"/>
<feBlend mode="normal" in2="effect2_dropShadow_1_4410" result="effect3_dropShadow_1_4410"/>
<feBlend mode="normal" in="SourceGraphic" in2="effect3_dropShadow_1_4410" result="shape"/>
</filter>
<clipPath id="clip0_1_4410">
<rect x="5" y="4" width="219" height="50" rx="25" fill="white"/>
</clipPath>
</defs>
</svg>
