<svg width="187" height="60" viewBox="0 0 187 60" fill="none" xmlns="http://www.w3.org/2000/svg">
<g filter="url(#filter0_ddd_1_4456)">
<g clip-path="url(#clip0_1_4456)">
<rect x="5" y="4" width="177" height="50" rx="25" fill="#262626"/>
<path d="M36.065 34V23.5H40.025C41.115 23.5 41.94 23.755 42.5 24.265C43.06 24.775 43.34 25.415 43.34 26.185C43.34 26.855 43.16 27.39 42.8 27.79C42.44 28.18 42.005 28.445 41.495 28.585C41.895 28.665 42.25 28.825 42.56 29.065C42.88 29.305 43.13 29.605 43.31 29.965C43.49 30.325 43.58 30.715 43.58 31.135C43.58 31.675 43.445 32.165 43.175 32.605C42.915 33.035 42.53 33.375 42.02 33.625C41.51 33.875 40.885 34 40.145 34H36.065ZM37.655 28H39.83C40.44 28 40.905 27.86 41.225 27.58C41.545 27.29 41.705 26.895 41.705 26.395C41.705 25.905 41.545 25.515 41.225 25.225C40.915 24.935 40.44 24.79 39.8 24.79H37.655V28ZM37.655 32.695H39.935C40.575 32.695 41.07 32.545 41.42 32.245C41.78 31.945 41.96 31.525 41.96 30.985C41.96 30.445 41.775 30.02 41.405 29.71C41.035 29.39 40.535 29.23 39.905 29.23H37.655V32.695ZM50.6278 34.18C49.5878 34.18 48.6778 33.95 47.8978 33.49C47.1178 33.03 46.5078 32.395 46.0678 31.585C45.6278 30.765 45.4078 29.82 45.4078 28.75C45.4078 27.68 45.6278 26.74 46.0678 25.93C46.5078 25.11 47.1178 24.47 47.8978 24.01C48.6778 23.55 49.5878 23.32 50.6278 23.32C51.6678 23.32 52.5778 23.55 53.3578 24.01C54.1378 24.47 54.7428 25.11 55.1728 25.93C55.6128 26.74 55.8328 27.68 55.8328 28.75C55.8328 29.82 55.6128 30.765 55.1728 31.585C54.7428 32.395 54.1378 33.03 53.3578 33.49C52.5778 33.95 51.6678 34.18 50.6278 34.18ZM50.6278 32.755C51.3478 32.755 51.9728 32.595 52.5028 32.275C53.0428 31.955 53.4628 31.495 53.7628 30.895C54.0628 30.295 54.2128 29.58 54.2128 28.75C54.2128 27.92 54.0628 27.205 53.7628 26.605C53.4628 26.005 53.0428 25.545 52.5028 25.225C51.9728 24.905 51.3478 24.745 50.6278 24.745C49.9078 24.745 49.2778 24.905 48.7378 25.225C48.1978 25.545 47.7778 26.005 47.4778 26.605C47.1878 27.205 47.0428 27.92 47.0428 28.75C47.0428 29.58 47.1878 30.295 47.4778 30.895C47.7778 31.495 48.1978 31.955 48.7378 32.275C49.2778 32.595 49.9078 32.755 50.6278 32.755ZM62.9091 34.18C61.8691 34.18 60.9591 33.95 60.1791 33.49C59.3991 33.03 58.7891 32.395 58.3491 31.585C57.9091 30.765 57.6891 29.82 57.6891 28.75C57.6891 27.68 57.9091 26.74 58.3491 25.93C58.7891 25.11 59.3991 24.47 60.1791 24.01C60.9591 23.55 61.8691 23.32 62.9091 23.32C63.9491 23.32 64.8591 23.55 65.6391 24.01C66.4191 24.47 67.0241 25.11 67.4541 25.93C67.8941 26.74 68.1141 27.68 68.1141 28.75C68.1141 29.82 67.8941 30.765 67.4541 31.585C67.0241 32.395 66.4191 33.03 65.6391 33.49C64.8591 33.95 63.9491 34.18 62.9091 34.18ZM62.9091 32.755C63.6291 32.755 64.2541 32.595 64.7841 32.275C65.3241 31.955 65.7441 31.495 66.0441 30.895C66.3441 30.295 66.4941 29.58 66.4941 28.75C66.4941 27.92 66.3441 27.205 66.0441 26.605C65.7441 26.005 65.3241 25.545 64.7841 25.225C64.2541 24.905 63.6291 24.745 62.9091 24.745C62.1891 24.745 61.5591 24.905 61.0191 25.225C60.4791 25.545 60.0591 26.005 59.7591 26.605C59.4691 27.205 59.3241 27.92 59.3241 28.75C59.3241 29.58 59.4691 30.295 59.7591 30.895C60.0591 31.495 60.4791 31.955 61.0191 32.275C61.5591 32.595 62.1891 32.755 62.9091 32.755ZM70.3454 34V23.5H71.9354V28L76.0754 23.5H78.0404L74.1554 27.685L78.1304 34H76.1954L73.0154 28.9L71.9354 30.07V34H70.3454ZM88.4539 34V23.5H90.0439L95.3089 31.405V23.5H96.8989V34H95.3089L90.0439 26.095V34H88.4539ZM104.335 34.18C103.295 34.18 102.385 33.95 101.605 33.49C100.825 33.03 100.215 32.395 99.7751 31.585C99.3351 30.765 99.1151 29.82 99.1151 28.75C99.1151 27.68 99.3351 26.74 99.7751 25.93C100.215 25.11 100.825 24.47 101.605 24.01C102.385 23.55 103.295 23.32 104.335 23.32C105.375 23.32 106.285 23.55 107.065 24.01C107.845 24.47 108.45 25.11 108.88 25.93C109.32 26.74 109.54 27.68 109.54 28.75C109.54 29.82 109.32 30.765 108.88 31.585C108.45 32.395 107.845 33.03 107.065 33.49C106.285 33.95 105.375 34.18 104.335 34.18ZM104.335 32.755C105.055 32.755 105.68 32.595 106.21 32.275C106.75 31.955 107.17 31.495 107.47 30.895C107.77 30.295 107.92 29.58 107.92 28.75C107.92 27.92 107.77 27.205 107.47 26.605C107.17 26.005 106.75 25.545 106.21 25.225C105.68 24.905 105.055 24.745 104.335 24.745C103.615 24.745 102.985 24.905 102.445 25.225C101.905 25.545 101.485 26.005 101.185 26.605C100.895 27.205 100.75 27.92 100.75 28.75C100.75 29.58 100.895 30.295 101.185 30.895C101.485 31.495 101.905 31.955 102.445 32.275C102.985 32.595 103.615 32.755 104.335 32.755ZM113.492 34.015L110.657 23.5H112.367L114.452 32.2L116.852 23.5H118.607L120.932 32.2L123.017 23.5H124.727L121.847 34H119.987L117.692 25.765L115.322 34L113.492 34.015Z" fill="white"/>
<path d="M146 21L144.59 22.41L150.17 28H138V30H150.17L144.59 35.59L146 37L154 29L146 21Z" fill="white"/>
</g>
</g>
<defs>
<filter id="filter0_ddd_1_4456" x="0" y="0" width="187" height="60" filterUnits="userSpaceOnUse" color-interpolation-filters="sRGB">
<feFlood flood-opacity="0" result="BackgroundImageFix"/>
<feColorMatrix in="SourceAlpha" type="matrix" values="0 0 0 0 0 0 0 0 0 0 0 0 0 0 0 0 0 0 127 0" result="hardAlpha"/>
<feOffset dy="1"/>
<feGaussianBlur stdDeviation="2.5"/>
<feComposite in2="hardAlpha" operator="out"/>
<feColorMatrix type="matrix" values="0 0 0 0 0 0 0 0 0 0 0 0 0 0 0 0 0 0 0.1 0"/>
<feBlend mode="normal" in2="BackgroundImageFix" result="effect1_dropShadow_1_4456"/>
<feColorMatrix in="SourceAlpha" type="matrix" values="0 0 0 0 0 0 0 0 0 0 0 0 0 0 0 0 0 0 127 0" result="hardAlpha"/>
<feOffset dy="2"/>
<feGaussianBlur stdDeviation="1"/>
<feComposite in2="hardAlpha" operator="out"/>
<feColorMatrix type="matrix" values="0 0 0 0 0 0 0 0 0 0 0 0 0 0 0 0 0 0 0.07 0"/>
<feBlend mode="normal" in2="effect1_dropShadow_1_4456" result="effect2_dropShadow_1_4456"/>
<feColorMatrix in="SourceAlpha" type="matrix" values="0 0 0 0 0 0 0 0 0 0 0 0 0 0 0 0 0 0 127 0" result="hardAlpha"/>
<feMorphology radius="2" operator="erode" in="SourceAlpha" result="effect3_dropShadow_1_4456"/>
<feOffset dy="3"/>
<feGaussianBlur stdDeviation="0.5"/>
<feComposite in2="hardAlpha" operator="out"/>
<feColorMatrix type="matrix" values="0 0 0 0 0 0 0 0 0 0 0 0 0 0 0 0 0 0 0.05 0"/>
<feBlend mode="normal" in2="effect2_dropShadow_1_4456" result="effect3_dropShadow_1_4456"/>
<feBlend mode="normal" in="SourceGraphic" in2="effect3_dropShadow_1_4456" result="shape"/>
</filter>
<clipPath id="clip0_1_4456">
<rect x="5" y="4" width="177" height="50" rx="25" fill="white"/>
</clipPath>
</defs>
</svg>
