<svg width="193" height="61" viewBox="0 0 193 61" fill="none" xmlns="http://www.w3.org/2000/svg">
<g filter="url(#filter0_ddd_2070_86)">
<g clip-path="url(#clip0_2070_86)">
<rect x="5" y="4.5" width="183" height="50" rx="25" fill="#EAC07F"/>
<path d="M35.54 22.5C35.6 23.39 35.75 24.26 35.99 25.09L34.79 26.29C34.38 25.09 34.12 23.82 34.03 22.5H35.54ZM45.4 34.52C46.25 34.76 47.12 34.91 48 34.97V36.46C46.68 36.37 45.41 36.11 44.2 35.71L45.4 34.52ZM36.5 20.5H33C32.45 20.5 32 20.95 32 21.5C32 30.89 39.61 38.5 49 38.5C49.55 38.5 50 38.05 50 37.5V34.01C50 33.46 49.55 33.01 49 33.01C47.76 33.01 46.55 32.81 45.43 32.44C45.33 32.4 45.22 32.39 45.12 32.39C44.86 32.39 44.61 32.49 44.41 32.68L42.21 34.88C39.38 33.43 37.06 31.12 35.62 28.29L37.82 26.09C38.1 25.81 38.18 25.42 38.07 25.07C37.7 23.95 37.5 22.75 37.5 21.5C37.5 20.95 37.05 20.5 36.5 20.5Z" fill="white"/>
<path d="M66.745 34.68C65.705 34.68 64.805 34.455 64.045 34.005C63.295 33.545 62.715 32.91 62.305 32.1C61.895 31.28 61.69 30.335 61.69 29.265C61.69 28.185 61.895 27.24 62.305 26.43C62.715 25.61 63.295 24.97 64.045 24.51C64.805 24.05 65.705 23.82 66.745 23.82C67.975 23.82 68.98 24.12 69.76 24.72C70.54 25.32 71.035 26.16 71.245 27.24H69.475C69.335 26.63 69.035 26.145 68.575 25.785C68.115 25.425 67.5 25.245 66.73 25.245C65.68 25.245 64.85 25.605 64.24 26.325C63.63 27.035 63.325 28.015 63.325 29.265C63.325 30.505 63.63 31.48 64.24 32.19C64.85 32.9 65.68 33.255 66.73 33.255C67.5 33.255 68.115 33.085 68.575 32.745C69.035 32.405 69.335 31.94 69.475 31.35H71.245C71.035 32.39 70.54 33.205 69.76 33.795C68.98 34.385 67.975 34.68 66.745 34.68ZM78.2977 34.68C77.2577 34.68 76.3477 34.45 75.5677 33.99C74.7877 33.53 74.1777 32.895 73.7377 32.085C73.2977 31.265 73.0777 30.32 73.0777 29.25C73.0777 28.18 73.2977 27.24 73.7377 26.43C74.1777 25.61 74.7877 24.97 75.5677 24.51C76.3477 24.05 77.2577 23.82 78.2977 23.82C79.3377 23.82 80.2477 24.05 81.0277 24.51C81.8077 24.97 82.4127 25.61 82.8427 26.43C83.2827 27.24 83.5027 28.18 83.5027 29.25C83.5027 30.32 83.2827 31.265 82.8427 32.085C82.4127 32.895 81.8077 33.53 81.0277 33.99C80.2477 34.45 79.3377 34.68 78.2977 34.68ZM78.2977 33.255C79.0177 33.255 79.6427 33.095 80.1727 32.775C80.7127 32.455 81.1327 31.995 81.4327 31.395C81.7327 30.795 81.8827 30.08 81.8827 29.25C81.8827 28.42 81.7327 27.705 81.4327 27.105C81.1327 26.505 80.7127 26.045 80.1727 25.725C79.6427 25.405 79.0177 25.245 78.2977 25.245C77.5777 25.245 76.9477 25.405 76.4077 25.725C75.8677 26.045 75.4477 26.505 75.1477 27.105C74.8577 27.705 74.7127 28.42 74.7127 29.25C74.7127 30.08 74.8577 30.795 75.1477 31.395C75.4477 31.995 75.8677 32.455 76.4077 32.775C76.9477 33.095 77.5777 33.255 78.2977 33.255ZM85.734 34.5V24H87.324L92.589 31.905V24H94.179V34.5H92.589L87.324 26.595V34.5H85.734ZM99.2302 34.5V25.29H96.1252V24H103.91V25.29H100.82V34.5H99.2302ZM104.041 34.5L107.911 24H109.651L113.491 34.5H111.811L110.911 31.935H106.621L105.721 34.5H104.041ZM107.071 30.675H110.461L108.766 25.89L107.071 30.675ZM119.494 34.68C118.454 34.68 117.554 34.455 116.794 34.005C116.044 33.545 115.464 32.91 115.054 32.1C114.644 31.28 114.439 30.335 114.439 29.265C114.439 28.185 114.644 27.24 115.054 26.43C115.464 25.61 116.044 24.97 116.794 24.51C117.554 24.05 118.454 23.82 119.494 23.82C120.724 23.82 121.729 24.12 122.509 24.72C123.289 25.32 123.784 26.16 123.994 27.24H122.224C122.084 26.63 121.784 26.145 121.324 25.785C120.864 25.425 120.249 25.245 119.479 25.245C118.429 25.245 117.599 25.605 116.989 26.325C116.379 27.035 116.074 28.015 116.074 29.265C116.074 30.505 116.379 31.48 116.989 32.19C117.599 32.9 118.429 33.255 119.479 33.255C120.249 33.255 120.864 33.085 121.324 32.745C121.784 32.405 122.084 31.94 122.224 31.35H123.994C123.784 32.39 123.289 33.205 122.509 33.795C121.729 34.385 120.724 34.68 119.494 34.68ZM128.472 34.5V25.29H125.367V24H133.152V25.29H130.062V34.5H128.472ZM143.269 34.68C142.519 34.68 141.839 34.535 141.229 34.245C140.629 33.945 140.149 33.49 139.789 32.88C139.439 32.27 139.264 31.495 139.264 30.555V24H140.854V30.57C140.854 31.49 141.074 32.165 141.514 32.595C141.954 33.025 142.549 33.24 143.299 33.24C144.039 33.24 144.629 33.025 145.069 32.595C145.509 32.165 145.729 31.49 145.729 30.57V24H147.319V30.555C147.319 31.495 147.134 32.27 146.764 32.88C146.404 33.49 145.914 33.945 145.294 34.245C144.684 34.535 144.009 34.68 143.269 34.68ZM153.283 34.68C152.513 34.68 151.838 34.545 151.258 34.275C150.678 34.005 150.223 33.62 149.893 33.12C149.573 32.62 149.408 32.025 149.398 31.335H151.078C151.088 31.895 151.283 32.37 151.663 32.76C152.043 33.15 152.578 33.345 153.268 33.345C153.878 33.345 154.353 33.2 154.693 32.91C155.043 32.61 155.218 32.23 155.218 31.77C155.218 31.4 155.133 31.1 154.963 30.87C154.803 30.64 154.578 30.45 154.288 30.3C154.008 30.15 153.683 30.015 153.313 29.895C152.943 29.775 152.553 29.645 152.143 29.505C151.333 29.235 150.723 28.885 150.313 28.455C149.913 28.025 149.713 27.46 149.713 26.76C149.703 26.17 149.838 25.655 150.118 25.215C150.408 24.775 150.808 24.435 151.318 24.195C151.838 23.945 152.443 23.82 153.133 23.82C153.813 23.82 154.408 23.945 154.918 24.195C155.438 24.445 155.843 24.795 156.133 25.245C156.423 25.685 156.573 26.2 156.583 26.79H154.903C154.903 26.52 154.833 26.265 154.693 26.025C154.553 25.775 154.348 25.57 154.078 25.41C153.808 25.25 153.478 25.17 153.088 25.17C152.588 25.16 152.173 25.285 151.843 25.545C151.523 25.805 151.363 26.165 151.363 26.625C151.363 27.035 151.483 27.35 151.723 27.57C151.963 27.79 152.293 27.975 152.713 28.125C153.133 28.265 153.613 28.43 154.153 28.62C154.673 28.79 155.138 28.995 155.548 29.235C155.958 29.475 156.283 29.79 156.523 30.18C156.773 30.57 156.898 31.065 156.898 31.665C156.898 32.195 156.763 32.69 156.493 33.15C156.223 33.6 155.818 33.97 155.278 34.26C154.738 34.54 154.073 34.68 153.283 34.68Z" fill="white"/>
</g>
</g>
<defs>
<filter id="filter0_ddd_2070_86" x="0" y="0.5" width="193" height="60" filterUnits="userSpaceOnUse" color-interpolation-filters="sRGB">
<feFlood flood-opacity="0" result="BackgroundImageFix"/>
<feColorMatrix in="SourceAlpha" type="matrix" values="0 0 0 0 0 0 0 0 0 0 0 0 0 0 0 0 0 0 127 0" result="hardAlpha"/>
<feOffset dy="1"/>
<feGaussianBlur stdDeviation="2.5"/>
<feComposite in2="hardAlpha" operator="out"/>
<feColorMatrix type="matrix" values="0 0 0 0 0 0 0 0 0 0 0 0 0 0 0 0 0 0 0.1 0"/>
<feBlend mode="normal" in2="BackgroundImageFix" result="effect1_dropShadow_2070_86"/>
<feColorMatrix in="SourceAlpha" type="matrix" values="0 0 0 0 0 0 0 0 0 0 0 0 0 0 0 0 0 0 127 0" result="hardAlpha"/>
<feOffset dy="2"/>
<feGaussianBlur stdDeviation="1"/>
<feComposite in2="hardAlpha" operator="out"/>
<feColorMatrix type="matrix" values="0 0 0 0 0 0 0 0 0 0 0 0 0 0 0 0 0 0 0.07 0"/>
<feBlend mode="normal" in2="effect1_dropShadow_2070_86" result="effect2_dropShadow_2070_86"/>
<feColorMatrix in="SourceAlpha" type="matrix" values="0 0 0 0 0 0 0 0 0 0 0 0 0 0 0 0 0 0 127 0" result="hardAlpha"/>
<feMorphology radius="2" operator="erode" in="SourceAlpha" result="effect3_dropShadow_2070_86"/>
<feOffset dy="3"/>
<feGaussianBlur stdDeviation="0.5"/>
<feComposite in2="hardAlpha" operator="out"/>
<feColorMatrix type="matrix" values="0 0 0 0 0 0 0 0 0 0 0 0 0 0 0 0 0 0 0.05 0"/>
<feBlend mode="normal" in2="effect2_dropShadow_2070_86" result="effect3_dropShadow_2070_86"/>
<feBlend mode="normal" in="SourceGraphic" in2="effect3_dropShadow_2070_86" result="shape"/>
</filter>
<clipPath id="clip0_2070_86">
<rect x="5" y="4.5" width="183" height="50" rx="25" fill="white"/>
</clipPath>
</defs>
</svg>
