<svg width="145" height="50" viewBox="0 0 145 50" fill="none" xmlns="http://www.w3.org/2000/svg">
<path d="M0.84375 17.4531C0.929688 17.3281 1.02734 17.1445 1.13672 16.9023C1.24609 16.6523 1.33203 16.3398 1.39453 15.9648C1.48047 15.418 1.57422 14.8047 1.67578 14.125C1.78516 13.4375 1.89453 12.7188 2.00391 11.9688C2.12109 11.2188 2.23438 10.4531 2.34375 9.67188C2.46094 8.88281 2.57031 8.10938 2.67188 7.35156C2.78125 6.58594 2.88281 5.85156 2.97656 5.14844C3.07812 4.4375 3.16797 3.78906 3.24609 3.20312C3.32422 2.61719 3.38672 2.10938 3.43359 1.67969C3.48828 1.24219 3.52734 0.914063 3.55078 0.695312H5.03906L12.4102 14.4766L19.7227 0.695312H20.8359L22.7578 14.6172C22.8125 15.0547 22.8711 15.4297 22.9336 15.7422C22.9961 16.0547 23.0586 16.3242 23.1211 16.5508C23.1836 16.7695 23.2422 16.9531 23.2969 17.1016C23.3594 17.2422 23.418 17.3594 23.4727 17.4531V17.5H20.5195V17.4531C20.5586 17.3672 20.5938 17.2266 20.625 17.0312C20.6641 16.8359 20.6836 16.6016 20.6836 16.3281C20.6836 16.2266 20.6797 16.125 20.6719 16.0234C20.6641 15.9141 20.6523 15.7969 20.6367 15.6719L19.1484 4.44531L12.2344 17.4531L11.4258 17.3594L4.46484 4.32812C4.19141 6.17969 3.95312 7.89062 3.75 9.46094C3.66406 10.1328 3.57812 10.8047 3.49219 11.4766C3.40625 12.1406 3.32812 12.7617 3.25781 13.3398C3.19531 13.918 3.14453 14.4297 3.10547 14.875C3.06641 15.3125 3.04688 15.6367 3.04688 15.8477C3.04688 16.1133 3.05469 16.3477 3.07031 16.5508C3.08594 16.7539 3.10156 16.9258 3.11719 17.0664C3.14062 17.2305 3.16406 17.375 3.1875 17.5H0.84375V17.4531ZM26.1211 0.695312C27.0977 0.695312 28.0664 0.691406 29.0273 0.683594C29.9961 0.675781 30.8828 0.667969 31.6875 0.660156C32.4922 0.644531 33.1797 0.625 33.75 0.601562C34.3203 0.578125 34.707 0.546875 34.9102 0.507812L34.3359 2.06641C34.0781 1.99609 33.7773 1.93359 33.4336 1.87891C33.1367 1.83203 32.7734 1.78906 32.3438 1.75C31.9219 1.70312 31.4336 1.67969 30.8789 1.67969C30.6914 1.67969 30.4648 1.6875 30.1992 1.70312C29.9414 1.71094 29.6914 1.72266 29.4492 1.73828C29.168 1.75391 28.8828 1.76953 28.5938 1.78516V8.18359C29.3984 8.17578 30.125 8.15234 30.7734 8.11328C31.4219 8.07422 31.9727 8.03516 32.4258 7.99609C32.957 7.94922 33.4258 7.89453 33.832 7.83203L33.4688 9.53125C32.9297 9.46094 32.3789 9.39453 31.8164 9.33203C31.332 9.27734 30.8047 9.23047 30.2344 9.19141C29.6641 9.14453 29.1172 9.12109 28.5938 9.12109V16.4688C29.5156 16.4688 30.3633 16.4297 31.1367 16.3516C31.9102 16.2734 32.5859 16.1836 33.1641 16.082C33.8359 15.9727 34.4492 15.8438 35.0039 15.6953L34.6641 17.5938C34.5703 17.5859 34.4297 17.5781 34.2422 17.5703C34.0547 17.5625 33.8438 17.5547 33.6094 17.5469C33.3828 17.5391 33.1406 17.5312 32.8828 17.5234C32.6328 17.5234 32.3945 17.5195 32.168 17.5117C31.9414 17.5117 31.7383 17.5078 31.5586 17.5C31.3867 17.5 31.2617 17.5 31.1836 17.5H26.1211V17.4531C26.168 17.2891 26.2109 17.0859 26.25 16.8438C26.2969 16.6016 26.3359 16.3008 26.3672 15.9414C26.3984 15.582 26.4219 15.1562 26.4375 14.6641C26.4531 14.1641 26.4609 13.582 26.4609 12.918V5.28906C26.4609 4.625 26.4531 4.04688 26.4375 3.55469C26.4219 3.05469 26.3984 2.625 26.3672 2.26562C26.3359 1.89844 26.2969 1.59375 26.25 1.35156C26.2109 1.10937 26.168 0.90625 26.1211 0.742188V0.695312ZM40.4531 1.70312C40.4375 2.57812 40.4219 3.42578 40.4062 4.24609C40.3984 4.59766 40.3906 4.95703 40.3828 5.32422C40.3828 5.69141 40.3789 6.05469 40.3711 6.41406C40.3711 6.76562 40.3672 7.10547 40.3594 7.43359C40.3594 7.75391 40.3594 8.03906 40.3594 8.28906C40.3594 8.8125 40.3633 9.44531 40.3711 10.1875C40.3789 10.9297 40.3867 11.6914 40.3945 12.4727C40.4102 13.2539 40.4297 14.0039 40.4531 14.7227C40.4766 15.4414 40.5039 16.0391 40.5352 16.5156C40.6445 16.5312 40.7891 16.5508 40.9688 16.5742C41.1562 16.5898 41.3516 16.6055 41.5547 16.6211C41.7578 16.6289 41.957 16.6367 42.1523 16.6445C42.3477 16.6523 42.5117 16.6562 42.6445 16.6562C43.1914 16.6562 43.75 16.6211 44.3203 16.5508C44.8984 16.4727 45.4531 16.332 45.9844 16.1289C46.5234 15.9258 47.0273 15.6484 47.4961 15.2969C47.9727 14.9375 48.3867 14.4766 48.7383 13.9141C49.0977 13.3516 49.3789 12.6758 49.582 11.8867C49.7852 11.0898 49.8867 10.1523 49.8867 9.07422C49.8867 7.87891 49.7422 6.81641 49.4531 5.88672C49.1641 4.94922 48.7383 4.16016 48.1758 3.51953C47.6211 2.87891 46.9297 2.39453 46.1016 2.06641C45.2812 1.73047 44.3359 1.5625 43.2656 1.5625C43.0547 1.5625 42.8164 1.57031 42.5508 1.58594C42.2852 1.59375 42.0195 1.60547 41.7539 1.62109C41.4961 1.62891 41.25 1.64453 41.0156 1.66797C40.7891 1.68359 40.6016 1.69531 40.4531 1.70312ZM37.8867 0.648438C38.0664 0.65625 38.2344 0.664062 38.3906 0.671875C38.5234 0.679688 38.6602 0.6875 38.8008 0.695312C38.9414 0.695312 39.0547 0.695312 39.1406 0.695312C39.2891 0.695312 39.5352 0.6875 39.8789 0.671875C40.2305 0.65625 40.6289 0.640625 41.0742 0.625C41.5195 0.609375 41.9805 0.59375 42.457 0.578125C42.9414 0.5625 43.3945 0.554688 43.8164 0.554688C44.9492 0.554688 46.0273 0.695312 47.0508 0.976562C48.0742 1.25781 48.9727 1.71875 49.7461 2.35938C50.5195 3 51.1328 3.83984 51.5859 4.87891C52.0391 5.91797 52.2656 7.19531 52.2656 8.71094C52.2656 9.79688 52.1445 10.7734 51.9023 11.6406C51.668 12.5078 51.3359 13.2734 50.9062 13.9375C50.4766 14.6016 49.9609 15.1719 49.3594 15.6484C48.7656 16.1172 48.1055 16.5039 47.3789 16.8086C46.6602 17.1133 45.8906 17.3359 45.0703 17.4766C44.25 17.6172 43.4023 17.6875 42.5273 17.6875C42.2148 17.6875 41.8359 17.6758 41.3906 17.6523C40.9531 17.6367 40.5117 17.6172 40.0664 17.5938C39.6211 17.5703 39.1992 17.5469 38.8008 17.5234C38.4102 17.5078 38.1055 17.5 37.8867 17.5V17.4531C37.9336 17.2891 37.9766 17.0859 38.0156 16.8438C38.0625 16.6016 38.1016 16.3008 38.1328 15.9414C38.1641 15.582 38.1875 15.1562 38.2031 14.6641C38.2188 14.1641 38.2266 13.582 38.2266 12.918V5.28906C38.2266 4.625 38.2188 4.04297 38.2031 3.54297C38.1875 3.03516 38.1641 2.60156 38.1328 2.24219C38.1016 1.875 38.0625 1.56641 38.0156 1.31641C37.9766 1.06641 37.9336 0.859375 37.8867 0.695312V0.648438ZM55.125 17.4531C55.1719 17.2891 55.2148 17.0859 55.2539 16.8438C55.293 16.6016 55.3281 16.3008 55.3594 15.9414C55.3906 15.582 55.4141 15.1562 55.4297 14.6641C55.4453 14.1641 55.4531 13.582 55.4531 12.918V5.28906C55.4531 4.625 55.4453 4.04688 55.4297 3.55469C55.4141 3.05469 55.3906 2.625 55.3594 2.26562C55.3281 1.89844 55.293 1.59375 55.2539 1.35156C55.2148 1.10937 55.1719 0.90625 55.125 0.742188V0.695312H57.9258V0.742188C57.8789 0.90625 57.832 1.10937 57.7852 1.35156C57.7461 1.59375 57.7109 1.89844 57.6797 2.26562C57.6562 2.625 57.6328 3.05469 57.6094 3.55469C57.5938 4.04688 57.5859 4.625 57.5859 5.28906V12.918C57.5859 13.582 57.5938 14.1641 57.6094 14.6641C57.6328 15.1562 57.6562 15.582 57.6797 15.9414C57.7109 16.3008 57.7461 16.6016 57.7852 16.8438C57.832 17.0859 57.8789 17.2891 57.9258 17.4531V17.5H55.125V17.4531ZM65.8125 1.72656C64.8906 1.72656 64.0586 1.76953 63.3164 1.85547C62.5742 1.93359 61.9336 2.01953 61.3945 2.11328C60.7695 2.23047 60.2109 2.35938 59.7188 2.5L60.0586 0.601562C60.1523 0.609375 60.293 0.617187 60.4805 0.625C60.668 0.632813 60.875 0.640625 61.1016 0.648438C61.3359 0.65625 61.5781 0.664062 61.8281 0.671875C62.0859 0.671875 62.3281 0.675781 62.5547 0.683594C62.7812 0.683594 62.9805 0.6875 63.1523 0.695312C63.332 0.695312 63.4609 0.695312 63.5391 0.695312H70.2305C70.3086 0.695312 70.4336 0.695312 70.6055 0.695312C70.7852 0.6875 70.9883 0.683594 71.2148 0.683594C71.4414 0.675781 71.6797 0.671875 71.9297 0.671875C72.1875 0.664062 72.4297 0.65625 72.6562 0.648438C72.8906 0.640625 73.1016 0.632813 73.2891 0.625C73.4766 0.617187 73.6172 0.609375 73.7109 0.601562L74.0508 2.5C73.5508 2.35938 72.9883 2.23047 72.3633 2.11328C71.8242 2.01953 71.1836 1.93359 70.4414 1.85547C69.6992 1.76953 68.8672 1.72656 67.9453 1.72656V12.918C67.9453 13.582 67.9531 14.1641 67.9688 14.6641C67.9922 15.1562 68.0156 15.582 68.0391 15.9414C68.0703 16.3008 68.1055 16.6016 68.1445 16.8438C68.1914 17.0859 68.2383 17.2891 68.2852 17.4531V17.5H65.4844V17.4531C65.5312 17.2891 65.5742 17.0859 65.6133 16.8438C65.6523 16.6016 65.6875 16.3008 65.7188 15.9414C65.75 15.582 65.7734 15.1562 65.7891 14.6641C65.8047 14.1641 65.8125 13.582 65.8125 12.918V1.72656ZM86.168 17.5V17.4531C86.1836 17.4141 86.1953 17.3555 86.2031 17.2773C86.2109 17.1992 86.2148 17.1289 86.2148 17.0664C86.2148 16.8242 86.1797 16.5586 86.1094 16.2695C86.0469 15.9727 85.9219 15.6055 85.7344 15.168L84.3164 11.9805C83.8789 11.9648 83.2969 11.957 82.5703 11.957C81.8438 11.957 81.0586 11.957 80.2148 11.957C79.5977 11.957 79 11.957 78.4219 11.957C77.8516 11.957 77.3359 11.9648 76.875 11.9805L75.5273 15.0742C75.4102 15.3633 75.2852 15.6797 75.1523 16.0234C75.0195 16.3672 74.9531 16.7148 74.9531 17.0664C74.9531 17.168 74.9609 17.2539 74.9766 17.3242C74.9922 17.3867 75.0078 17.4297 75.0234 17.4531V17.5H72.6328V17.4531C72.7734 17.3047 72.9492 17.043 73.1602 16.668C73.3711 16.2852 73.6016 15.8086 73.8516 15.2383L80.5664 0.34375H81.5039L87.8672 14.6641C88.0156 15 88.168 15.3281 88.3242 15.6484C88.4883 15.9609 88.6406 16.2422 88.7812 16.4922C88.9219 16.7422 89.0469 16.9531 89.1562 17.125C89.2656 17.2969 89.3398 17.4062 89.3789 17.4531V17.5H86.168ZM78.5742 10.9492C79.0273 10.9492 79.4922 10.9492 79.9688 10.9492C80.4453 10.9414 80.9102 10.9375 81.3633 10.9375C81.8242 10.9297 82.2656 10.9258 82.6875 10.9258C83.1094 10.918 83.4922 10.9102 83.8359 10.9023L80.543 3.46094L77.3086 10.9492H78.5742ZM94.0547 1.72656C93.1328 1.72656 92.3008 1.76953 91.5586 1.85547C90.8164 1.93359 90.1758 2.01953 89.6367 2.11328C89.0117 2.23047 88.4531 2.35938 87.9609 2.5L88.3008 0.601562C88.3945 0.609375 88.5352 0.617187 88.7227 0.625C88.9102 0.632813 89.1172 0.640625 89.3438 0.648438C89.5781 0.65625 89.8203 0.664062 90.0703 0.671875C90.3281 0.671875 90.5703 0.675781 90.7969 0.683594C91.0234 0.683594 91.2227 0.6875 91.3945 0.695312C91.5742 0.695312 91.7031 0.695312 91.7812 0.695312H98.4727C98.5508 0.695312 98.6758 0.695312 98.8477 0.695312C99.0273 0.6875 99.2305 0.683594 99.457 0.683594C99.6836 0.675781 99.9219 0.671875 100.172 0.671875C100.43 0.664062 100.672 0.65625 100.898 0.648438C101.133 0.640625 101.344 0.632813 101.531 0.625C101.719 0.617187 101.859 0.609375 101.953 0.601562L102.293 2.5C101.793 2.35938 101.23 2.23047 100.605 2.11328C100.066 2.01953 99.4258 1.93359 98.6836 1.85547C97.9414 1.76953 97.1094 1.72656 96.1875 1.72656V12.918C96.1875 13.582 96.1953 14.1641 96.2109 14.6641C96.2344 15.1562 96.2578 15.582 96.2812 15.9414C96.3125 16.3008 96.3477 16.6016 96.3867 16.8438C96.4336 17.0859 96.4805 17.2891 96.5273 17.4531V17.5H93.7266V17.4531C93.7734 17.2891 93.8164 17.0859 93.8555 16.8438C93.8945 16.6016 93.9297 16.3008 93.9609 15.9414C93.9922 15.582 94.0156 15.1562 94.0312 14.6641C94.0469 14.1641 94.0547 13.582 94.0547 12.918V1.72656ZM104.086 17.4531C104.133 17.2891 104.176 17.0859 104.215 16.8438C104.254 16.6016 104.289 16.3008 104.32 15.9414C104.352 15.582 104.375 15.1562 104.391 14.6641C104.406 14.1641 104.414 13.582 104.414 12.918V5.28906C104.414 4.625 104.406 4.04688 104.391 3.55469C104.375 3.05469 104.352 2.625 104.32 2.26562C104.289 1.89844 104.254 1.59375 104.215 1.35156C104.176 1.10937 104.133 0.90625 104.086 0.742188V0.695312H106.887V0.742188C106.84 0.90625 106.793 1.10937 106.746 1.35156C106.707 1.59375 106.672 1.89844 106.641 2.26562C106.617 2.625 106.594 3.05469 106.57 3.55469C106.555 4.04688 106.547 4.625 106.547 5.28906V12.918C106.547 13.582 106.555 14.1641 106.57 14.6641C106.594 15.1562 106.617 15.582 106.641 15.9414C106.672 16.3008 106.707 16.6016 106.746 16.8438C106.793 17.0859 106.84 17.2891 106.887 17.4531V17.5H104.086V17.4531ZM118.02 0.414062C119.324 0.414062 120.527 0.628906 121.629 1.05859C122.738 1.48047 123.695 2.07812 124.5 2.85156C125.305 3.61719 125.934 4.53906 126.387 5.61719C126.84 6.69531 127.066 7.88672 127.066 9.19141C127.066 9.93359 126.98 10.6641 126.809 11.3828C126.637 12.1016 126.383 12.7812 126.047 13.4219C125.719 14.0625 125.312 14.6562 124.828 15.2031C124.344 15.7422 123.789 16.2109 123.164 16.6094C122.547 17 121.863 17.3047 121.113 17.5234C120.363 17.75 119.555 17.8633 118.688 17.8633C117.383 17.8633 116.176 17.6562 115.066 17.2422C113.965 16.8203 113.012 16.2266 112.207 15.4609C111.402 14.6953 110.773 13.7773 110.32 12.707C109.867 11.6289 109.641 10.4336 109.641 9.12109C109.641 8.37891 109.727 7.64844 109.898 6.92969C110.07 6.21094 110.32 5.52734 110.648 4.87891C110.984 4.23047 111.391 3.63672 111.867 3.09766C112.352 2.55078 112.902 2.07812 113.52 1.67969C114.145 1.28125 114.832 0.972656 115.582 0.753906C116.34 0.527344 117.152 0.414062 118.02 0.414062ZM118.688 16.8086C119.555 16.8086 120.348 16.6523 121.066 16.3398C121.785 16.0273 122.402 15.5742 122.918 14.9805C123.441 14.3867 123.848 13.6641 124.137 12.8125C124.426 11.9531 124.57 10.9805 124.57 9.89453C124.57 8.69141 124.43 7.57812 124.148 6.55469C123.875 5.52344 123.465 4.63281 122.918 3.88281C122.371 3.125 121.688 2.53516 120.867 2.11328C120.055 1.68359 119.105 1.46875 118.02 1.46875C117.152 1.46875 116.359 1.625 115.641 1.9375C114.922 2.24219 114.301 2.6875 113.777 3.27344C113.262 3.85938 112.859 4.57812 112.57 5.42969C112.281 6.28125 112.137 7.25 112.137 8.33594C112.137 9.53125 112.273 10.6484 112.547 11.6875C112.82 12.7188 113.23 13.6133 113.777 14.3711C114.324 15.1289 115.008 15.7266 115.828 16.1641C116.648 16.5938 117.602 16.8086 118.688 16.8086ZM130.371 0.695312L142.441 13.5391V5.28906C142.441 4.625 142.434 4.04688 142.418 3.55469C142.402 3.05469 142.379 2.625 142.348 2.26562C142.316 1.89844 142.277 1.59375 142.23 1.35156C142.191 1.10937 142.148 0.90625 142.102 0.742188V0.695312H144.188V0.742188C144.141 0.90625 144.098 1.10937 144.059 1.35156C144.02 1.59375 143.984 1.89844 143.953 2.26562C143.922 2.625 143.898 3.05469 143.883 3.55469C143.867 4.04688 143.859 4.625 143.859 5.28906V17.7344H143.449L131.379 4.90234V12.918C131.379 13.582 131.387 14.1641 131.402 14.6641C131.418 15.1562 131.441 15.582 131.473 15.9414C131.504 16.3008 131.539 16.6016 131.578 16.8438C131.617 17.0859 131.66 17.2891 131.707 17.4531V17.5H129.621V17.4531C129.668 17.2891 129.711 17.0859 129.75 16.8438C129.797 16.6016 129.836 16.3008 129.867 15.9414C129.898 15.582 129.922 15.1562 129.938 14.6641C129.953 14.1641 129.961 13.582 129.961 12.918V5.28906C129.961 4.625 129.953 4.04688 129.938 3.55469C129.922 3.05469 129.898 2.625 129.867 2.26562C129.836 1.89844 129.797 1.59375 129.75 1.35156C129.711 1.10937 129.668 0.90625 129.621 0.742188V0.695312H130.371ZM15.2695 35.2734L15.1641 35.3203C14.5547 34.7578 13.8203 34.3086 12.9609 33.9727C12.1094 33.6367 11.1719 33.4688 10.1484 33.4688C9.16406 33.4688 8.26172 33.625 7.44141 33.9375C6.62109 34.2422 5.91406 34.6875 5.32031 35.2734C4.73438 35.8594 4.27734 36.5781 3.94922 37.4297C3.62109 38.2812 3.45703 39.25 3.45703 40.3359C3.45703 41.5312 3.61328 42.6484 3.92578 43.6875C4.23828 44.7188 4.70312 45.6133 5.32031 46.3711C5.9375 47.1289 6.70703 47.7266 7.62891 48.1641C8.55859 48.5938 9.64062 48.8086 10.875 48.8086C11.3203 48.8086 11.7656 48.7617 12.2109 48.668C12.6562 48.5742 13.082 48.4375 13.4883 48.2578C13.9023 48.0703 14.2891 47.8477 14.6484 47.5898C15.0156 47.3242 15.3477 47.0234 15.6445 46.6875L15.7734 46.7695L14.8359 49.1602C14.25 49.3867 13.6016 49.5586 12.8906 49.6758C12.1875 49.8008 11.4766 49.8633 10.7578 49.8633C9.3125 49.8633 7.98828 49.6562 6.78516 49.2422C5.58984 48.8203 4.55859 48.2266 3.69141 47.4609C2.83203 46.6953 2.16016 45.7773 1.67578 44.707C1.19922 43.6289 0.960938 42.4336 0.960938 41.1211C0.960938 40.3789 1.05469 39.6484 1.24219 38.9297C1.4375 38.2109 1.71875 37.5273 2.08594 36.8789C2.45312 36.2305 2.90625 35.6367 3.44531 35.0977C3.98438 34.5508 4.59766 34.0781 5.28516 33.6797C5.98047 33.2812 6.74219 32.9727 7.57031 32.7539C8.40625 32.5273 9.30859 32.4141 10.2773 32.4141C11.7852 32.4141 13.1836 32.6445 14.4727 33.1055L15.2695 35.2734ZM17.918 32.6953C18.8945 32.6953 19.8633 32.6914 20.8242 32.6836C21.793 32.6758 22.6797 32.668 23.4844 32.6602C24.2891 32.6445 24.9766 32.625 25.5469 32.6016C26.1172 32.5781 26.5039 32.5469 26.707 32.5078L26.1328 34.0664C25.875 33.9961 25.5742 33.9336 25.2305 33.8789C24.9336 33.832 24.5703 33.7891 24.1406 33.75C23.7188 33.7031 23.2305 33.6797 22.6758 33.6797C22.4883 33.6797 22.2617 33.6875 21.9961 33.7031C21.7383 33.7109 21.4883 33.7227 21.2461 33.7383C20.9648 33.7539 20.6797 33.7695 20.3906 33.7852V40.1836C21.1953 40.1758 21.9219 40.1523 22.5703 40.1133C23.2188 40.0742 23.7695 40.0352 24.2227 39.9961C24.7539 39.9492 25.2227 39.8945 25.6289 39.832L25.2656 41.5312C24.7266 41.4609 24.1758 41.3945 23.6133 41.332C23.1289 41.2773 22.6016 41.2305 22.0312 41.1914C21.4609 41.1445 20.9141 41.1211 20.3906 41.1211V48.4688C21.3125 48.4688 22.1602 48.4297 22.9336 48.3516C23.707 48.2734 24.3828 48.1836 24.9609 48.082C25.6328 47.9727 26.2461 47.8438 26.8008 47.6953L26.4609 49.5938C26.3672 49.5859 26.2266 49.5781 26.0391 49.5703C25.8516 49.5625 25.6406 49.5547 25.4062 49.5469C25.1797 49.5391 24.9375 49.5312 24.6797 49.5234C24.4297 49.5234 24.1914 49.5195 23.9648 49.5117C23.7383 49.5117 23.5352 49.5078 23.3555 49.5C23.1836 49.5 23.0586 49.5 22.9805 49.5H17.918V49.4531C17.9648 49.2891 18.0078 49.0859 18.0469 48.8438C18.0938 48.6016 18.1328 48.3008 18.1641 47.9414C18.1953 47.582 18.2188 47.1562 18.2344 46.6641C18.25 46.1641 18.2578 45.582 18.2578 44.918V37.2891C18.2578 36.625 18.25 36.0469 18.2344 35.5547C18.2188 35.0547 18.1953 34.625 18.1641 34.2656C18.1328 33.8984 18.0938 33.5938 18.0469 33.3516C18.0078 33.1094 17.9648 32.9062 17.918 32.7422V32.6953ZM30.3398 32.6953L42.4102 45.5391V37.2891C42.4102 36.625 42.4023 36.0469 42.3867 35.5547C42.3711 35.0547 42.3477 34.625 42.3164 34.2656C42.2852 33.8984 42.2461 33.5938 42.1992 33.3516C42.1602 33.1094 42.1172 32.9062 42.0703 32.7422V32.6953H44.1562V32.7422C44.1094 32.9062 44.0664 33.1094 44.0273 33.3516C43.9883 33.5938 43.9531 33.8984 43.9219 34.2656C43.8906 34.625 43.8672 35.0547 43.8516 35.5547C43.8359 36.0469 43.8281 36.625 43.8281 37.2891V49.7344H43.418L31.3477 36.9023V44.918C31.3477 45.582 31.3555 46.1641 31.3711 46.6641C31.3867 47.1562 31.4102 47.582 31.4414 47.9414C31.4727 48.3008 31.5078 48.6016 31.5469 48.8438C31.5859 49.0859 31.6289 49.2891 31.6758 49.4531V49.5H29.5898V49.4531C29.6367 49.2891 29.6797 49.0859 29.7188 48.8438C29.7656 48.6016 29.8047 48.3008 29.8359 47.9414C29.8672 47.582 29.8906 47.1562 29.9062 46.6641C29.9219 46.1641 29.9297 45.582 29.9297 44.918V37.2891C29.9297 36.625 29.9219 36.0469 29.9062 35.5547C29.8906 35.0547 29.8672 34.625 29.8359 34.2656C29.8047 33.8984 29.7656 33.5938 29.7188 33.3516C29.6797 33.1094 29.6367 32.9062 29.5898 32.7422V32.6953H30.3398ZM51.8438 33.7266C50.9219 33.7266 50.0898 33.7695 49.3477 33.8555C48.6055 33.9336 47.9648 34.0195 47.4258 34.1133C46.8008 34.2305 46.2422 34.3594 45.75 34.5L46.0898 32.6016C46.1836 32.6094 46.3242 32.6172 46.5117 32.625C46.6992 32.6328 46.9062 32.6406 47.1328 32.6484C47.3672 32.6562 47.6094 32.6641 47.8594 32.6719C48.1172 32.6719 48.3594 32.6758 48.5859 32.6836C48.8125 32.6836 49.0117 32.6875 49.1836 32.6953C49.3633 32.6953 49.4922 32.6953 49.5703 32.6953H56.2617C56.3398 32.6953 56.4648 32.6953 56.6367 32.6953C56.8164 32.6875 57.0195 32.6836 57.2461 32.6836C57.4727 32.6758 57.7109 32.6719 57.9609 32.6719C58.2188 32.6641 58.4609 32.6562 58.6875 32.6484C58.9219 32.6406 59.1328 32.6328 59.3203 32.625C59.5078 32.6172 59.6484 32.6094 59.7422 32.6016L60.082 34.5C59.582 34.3594 59.0195 34.2305 58.3945 34.1133C57.8555 34.0195 57.2148 33.9336 56.4727 33.8555C55.7305 33.7695 54.8984 33.7266 53.9766 33.7266V44.918C53.9766 45.582 53.9844 46.1641 54 46.6641C54.0234 47.1562 54.0469 47.582 54.0703 47.9414C54.1016 48.3008 54.1367 48.6016 54.1758 48.8438C54.2227 49.0859 54.2695 49.2891 54.3164 49.4531V49.5H51.5156V49.4531C51.5625 49.2891 51.6055 49.0859 51.6445 48.8438C51.6836 48.6016 51.7188 48.3008 51.75 47.9414C51.7812 47.582 51.8047 47.1562 51.8203 46.6641C51.8359 46.1641 51.8438 45.582 51.8438 44.918V33.7266ZM61.7695 32.6953C62.7461 32.6953 63.7148 32.6914 64.6758 32.6836C65.6445 32.6758 66.5312 32.668 67.3359 32.6602C68.1406 32.6445 68.8281 32.625 69.3984 32.6016C69.9688 32.5781 70.3555 32.5469 70.5586 32.5078L69.9844 34.0664C69.7266 33.9961 69.4258 33.9336 69.082 33.8789C68.7852 33.832 68.4219 33.7891 67.9922 33.75C67.5703 33.7031 67.082 33.6797 66.5273 33.6797C66.3398 33.6797 66.1133 33.6875 65.8477 33.7031C65.5898 33.7109 65.3398 33.7227 65.0977 33.7383C64.8164 33.7539 64.5312 33.7695 64.2422 33.7852V40.1836C65.0469 40.1758 65.7734 40.1523 66.4219 40.1133C67.0703 40.0742 67.6211 40.0352 68.0742 39.9961C68.6055 39.9492 69.0742 39.8945 69.4805 39.832L69.1172 41.5312C68.5781 41.4609 68.0273 41.3945 67.4648 41.332C66.9805 41.2773 66.4531 41.2305 65.8828 41.1914C65.3125 41.1445 64.7656 41.1211 64.2422 41.1211V48.4688C65.1641 48.4688 66.0117 48.4297 66.7852 48.3516C67.5586 48.2734 68.2344 48.1836 68.8125 48.082C69.4844 47.9727 70.0977 47.8438 70.6523 47.6953L70.3125 49.5938C70.2188 49.5859 70.0781 49.5781 69.8906 49.5703C69.7031 49.5625 69.4922 49.5547 69.2578 49.5469C69.0312 49.5391 68.7891 49.5312 68.5312 49.5234C68.2812 49.5234 68.043 49.5195 67.8164 49.5117C67.5898 49.5117 67.3867 49.5078 67.207 49.5C67.0352 49.5 66.9102 49.5 66.832 49.5H61.7695V49.4531C61.8164 49.2891 61.8594 49.0859 61.8984 48.8438C61.9453 48.6016 61.9844 48.3008 62.0156 47.9414C62.0469 47.582 62.0703 47.1562 62.0859 46.6641C62.1016 46.1641 62.1094 45.582 62.1094 44.918V37.2891C62.1094 36.625 62.1016 36.0469 62.0859 35.5547C62.0703 35.0547 62.0469 34.625 62.0156 34.2656C61.9844 33.8984 61.9453 33.5938 61.8984 33.3516C61.8594 33.1094 61.8164 32.9062 61.7695 32.7422V32.6953ZM76.0078 44.918C76.0078 45.582 76.0156 46.1641 76.0312 46.6641C76.0547 47.1562 76.0781 47.582 76.1016 47.9414C76.1328 48.3008 76.168 48.6016 76.207 48.8438C76.2539 49.0859 76.3008 49.2891 76.3477 49.4531V49.5H73.5352V49.4531C73.582 49.2891 73.625 49.0859 73.6641 48.8438C73.7109 48.6016 73.7461 48.3008 73.7695 47.9414C73.8008 47.582 73.8242 47.1562 73.8398 46.6641C73.8633 46.1719 73.875 45.5898 73.875 44.918V37.2891C73.875 36.625 73.8633 36.0469 73.8398 35.5547C73.8242 35.0547 73.8008 34.625 73.7695 34.2656C73.7461 33.9062 73.7109 33.6055 73.6641 33.3633C73.625 33.1133 73.582 32.9062 73.5352 32.7422V32.6953L74.0273 32.7422C74.1758 32.7578 74.3398 32.7695 74.5195 32.7773C74.707 32.7773 74.8984 32.7773 75.0938 32.7773C75.3984 32.7773 75.8086 32.7422 76.3242 32.6719C76.8477 32.5938 77.5117 32.5547 78.3164 32.5547C79.0664 32.5547 79.7578 32.6562 80.3906 32.8594C81.0312 33.0625 81.5859 33.3594 82.0547 33.75C82.5234 34.1406 82.8867 34.6211 83.1445 35.1914C83.4102 35.7539 83.543 36.3945 83.543 37.1133C83.543 37.6758 83.4688 38.1992 83.3203 38.6836C83.1797 39.1602 82.9766 39.5938 82.7109 39.9844C82.4531 40.375 82.1406 40.7227 81.7734 41.0273C81.4062 41.3242 80.9961 41.5742 80.543 41.7773L84.6562 47.5547C84.8594 47.8438 85.0469 48.0938 85.2188 48.3047C85.3984 48.5156 85.5664 48.6992 85.7227 48.8555C85.8867 49.0039 86.043 49.1289 86.1914 49.2305C86.3398 49.3242 86.4922 49.3984 86.6484 49.4531V49.5H83.2617C83.2383 49.3516 83.1602 49.1562 83.0273 48.9141C82.9023 48.6641 82.7539 48.418 82.582 48.1758L78.4336 42.3281C78.2539 42.3438 78.0742 42.3594 77.8945 42.375C77.7148 42.3828 77.5312 42.3867 77.3438 42.3867C77.125 42.3867 76.9023 42.3789 76.6758 42.3633C76.457 42.3477 76.2344 42.3203 76.0078 42.2812V44.918ZM76.0078 41.3672C76.2188 41.4141 76.4336 41.4492 76.6523 41.4727C76.8711 41.4883 77.082 41.4961 77.2852 41.4961C77.8711 41.4961 78.4062 41.4102 78.8906 41.2383C79.375 41.0586 79.7852 40.7891 80.1211 40.4297C80.4648 40.0703 80.7305 39.625 80.918 39.0938C81.1055 38.5547 81.1992 37.9258 81.1992 37.207C81.1992 36.6211 81.1328 36.0898 81 35.6133C80.8672 35.1367 80.668 34.7344 80.4023 34.4062C80.1445 34.0703 79.8164 33.8125 79.418 33.6328C79.0195 33.4453 78.5547 33.3516 78.0234 33.3516C77.4844 33.3516 77.0547 33.3789 76.7344 33.4336C76.4141 33.4883 76.1719 33.5469 76.0078 33.6094V41.3672Z" fill="white"/>
</svg>
