<svg width="30" height="30" viewBox="0 0 30 30" fill="none" xmlns="http://www.w3.org/2000/svg">
<path d="M26.9115 4.54541H10.1468C9.41581 4.54541 8.82324 5.15593 8.82324 5.90905C8.82324 6.66216 9.41581 7.27268 10.1468 7.27268H26.9115C27.6424 7.27268 28.235 6.66216 28.235 5.90905C28.235 5.15593 27.6424 4.54541 26.9115 4.54541Z" fill="#262626"/>
<path d="M26.9117 13.6367H3.08818C2.35721 13.6367 1.76465 14.2472 1.76465 15.0004C1.76465 15.7535 2.35721 16.364 3.08818 16.364H26.9117C27.6427 16.364 28.2352 15.7535 28.2352 15.0004C28.2352 14.2472 27.6427 13.6367 26.9117 13.6367Z" fill="#262626"/>
<path d="M26.9118 22.7275H14.5589C13.8279 22.7275 13.2354 23.3381 13.2354 24.0912C13.2354 24.8443 13.8279 25.4548 14.5589 25.4548H26.9118C27.6428 25.4548 28.2354 24.8443 28.2354 24.0912C28.2354 23.3381 27.6428 22.7275 26.9118 22.7275Z" fill="#262626"/>
</svg>
