<svg width="321" height="197" viewBox="0 0 321 197" fill="none" xmlns="http://www.w3.org/2000/svg">
<path d="M321 154.659C309.444 245.736 307.304 161.533 197.308 161.533C115.994 161.533 0 207.924 0 126.305C0 44.6853 24.402 0 105.716 0C187.03 0 321 73.0395 321 154.659Z" fill="#F9EABD"/>
<path d="M39.2363 72.2227H39.0215C38.9694 72.0729 38.8848 71.9036 38.7676 71.7148C38.6569 71.526 38.5072 71.3503 38.3184 71.1875C38.1361 71.0182 37.9115 70.8783 37.6445 70.7676C37.3841 70.6569 37.0749 70.6016 36.7168 70.6016C36.3978 70.6016 36.1146 70.6504 35.8672 70.748C35.6198 70.8457 35.4115 70.9824 35.2422 71.1582C35.0794 71.334 34.9557 71.5423 34.8711 71.7832C34.7865 72.0241 34.7441 72.291 34.7441 72.584C34.7441 73.0527 34.8743 73.502 35.1348 73.9316C35.4017 74.3548 35.7337 74.7747 36.1309 75.1914C36.528 75.6081 36.9577 76.0247 37.4199 76.4414C37.8822 76.8581 38.3118 77.291 38.709 77.7402C39.1061 78.1895 39.4349 78.6615 39.6953 79.1562C39.9622 79.6445 40.0957 80.1719 40.0957 80.7383C40.0957 81.1615 40.0208 81.5879 39.8711 82.0176C39.7279 82.4408 39.5033 82.8216 39.1973 83.1602C38.8913 83.4987 38.4974 83.7754 38.0156 83.9902C37.5339 84.1986 36.9609 84.3027 36.2969 84.3027C35.9258 84.3027 35.571 84.2669 35.2324 84.1953C34.9004 84.1302 34.5911 84.0488 34.3047 83.9512C34.0247 83.847 33.7708 83.7363 33.543 83.6191C33.3216 83.502 33.1393 83.3945 32.9961 83.2969L33.2207 81.1387H33.4648C33.5365 81.4447 33.6536 81.7376 33.8164 82.0176C33.9792 82.291 34.1777 82.5352 34.4121 82.75C34.653 82.9583 34.9264 83.1276 35.2324 83.2578C35.5384 83.3815 35.8737 83.4434 36.2383 83.4434C36.5703 83.4434 36.8665 83.3945 37.127 83.2969C37.3939 83.1927 37.6217 83.0527 37.8105 82.877C37.9993 82.6947 38.1426 82.4798 38.2402 82.2324C38.3444 81.985 38.3965 81.7148 38.3965 81.4219C38.3965 81.0117 38.3216 80.6341 38.1719 80.2891C38.0221 79.9375 37.8236 79.6055 37.5762 79.293C37.3353 78.9805 37.0586 78.6777 36.7461 78.3848C36.4401 78.0918 36.1243 77.7988 35.7988 77.5059C35.4733 77.2064 35.1543 76.9004 34.8418 76.5879C34.5358 76.2754 34.2591 75.9434 34.0117 75.5918C33.7708 75.2337 33.5755 74.8529 33.4258 74.4492C33.276 74.0391 33.2012 73.5898 33.2012 73.1016C33.2012 72.5872 33.2988 72.125 33.4941 71.7148C33.696 71.2982 33.9596 70.9434 34.2852 70.6504C34.6172 70.3574 34.9915 70.1328 35.4082 69.9766C35.8249 69.8203 36.2546 69.7422 36.6973 69.7422C37.0228 69.7422 37.3223 69.7682 37.5957 69.8203C37.8691 69.8724 38.1133 69.9342 38.3281 70.0059C38.5495 70.0775 38.7415 70.1491 38.9043 70.2207C39.0671 70.2923 39.2005 70.3509 39.3047 70.3965L39.2363 72.2227ZM42.8141 77.8184C42.8141 77.265 42.8043 76.7832 42.7848 76.373C42.7717 75.9564 42.7522 75.5983 42.7262 75.2988C42.7066 74.9993 42.6773 74.7487 42.6383 74.5469C42.6057 74.3451 42.5699 74.1758 42.5309 74.0391V74H44.7867V74.0391C44.7477 74.1758 44.7118 74.3451 44.6793 74.5469C44.6467 74.7487 44.6174 74.9993 44.5914 75.2988C44.5654 75.5983 44.5458 75.9564 44.5328 76.373C44.5198 76.7832 44.5133 77.265 44.5133 77.8184V80.1816C44.5133 80.735 44.5198 81.2201 44.5328 81.6367C44.5458 82.0469 44.5654 82.4017 44.5914 82.7012C44.6174 83.0007 44.6467 83.2513 44.6793 83.4531C44.7118 83.6549 44.7477 83.8242 44.7867 83.9609V84H42.5309V83.9609C42.5699 83.8242 42.6057 83.6549 42.6383 83.4531C42.6773 83.2513 42.7066 83.0007 42.7262 82.7012C42.7522 82.4017 42.7717 82.0469 42.7848 81.6367C42.8043 81.2201 42.8141 80.735 42.8141 80.1816V77.8184ZM42.609 71.041C42.609 70.8978 42.635 70.7643 42.6871 70.6406C42.7457 70.5104 42.8206 70.3997 42.9117 70.3086C43.0029 70.2109 43.1103 70.1361 43.234 70.084C43.3642 70.0254 43.5042 69.9961 43.6539 69.9961C43.8036 69.9961 43.9404 70.0254 44.0641 70.084C44.1943 70.1361 44.3049 70.2109 44.3961 70.3086C44.4937 70.3997 44.5686 70.5104 44.6207 70.6406C44.6793 70.7643 44.7086 70.8978 44.7086 71.041C44.7086 71.3405 44.6077 71.5911 44.4059 71.793C44.204 71.9948 43.9534 72.0957 43.6539 72.0957C43.5042 72.0957 43.3642 72.0697 43.234 72.0176C43.1103 71.959 43.0029 71.8841 42.9117 71.793C42.8206 71.6953 42.7457 71.5846 42.6871 71.4609C42.635 71.3307 42.609 71.1908 42.609 71.041ZM51.509 88.4629C52.0363 88.4629 52.4823 88.4043 52.8469 88.2871C53.2115 88.1764 53.5109 88.0202 53.7453 87.8184C53.9862 87.6165 54.1685 87.3724 54.2922 87.0859C54.4224 86.806 54.5168 86.4967 54.5754 86.1582C54.6405 85.8197 54.6763 85.4583 54.6828 85.0742C54.6958 84.6901 54.7023 84.293 54.7023 83.8828V83.5605C54.3833 83.7298 53.9992 83.8763 53.55 84C53.1008 84.1172 52.593 84.1758 52.0266 84.1758C51.2518 84.1758 50.5487 84.0553 49.9172 83.8145C49.2857 83.5736 48.7453 83.2285 48.2961 82.7793C47.8534 82.3301 47.5116 81.7865 47.2707 81.1484C47.0298 80.5039 46.9094 79.7812 46.9094 78.9805C46.9094 78.2448 47.0266 77.5612 47.2609 76.9297C47.5018 76.2982 47.8371 75.7513 48.2668 75.2891C48.703 74.8268 49.2206 74.4655 49.8195 74.2051C50.425 73.9382 51.0923 73.8047 51.8215 73.8047C52.134 73.8047 52.4204 73.8307 52.6809 73.8828C52.9413 73.9349 53.1822 74.0065 53.4035 74.0977C53.6314 74.1823 53.843 74.2832 54.0383 74.4004C54.2401 74.5111 54.4354 74.6315 54.6242 74.7617L54.5266 74.0391V74H56.6848V74.0391C56.6457 74.1758 56.6066 74.3451 56.5676 74.5469C56.535 74.7487 56.5057 74.9993 56.4797 75.2988C56.4602 75.5983 56.4406 75.9564 56.4211 76.373C56.4081 76.7832 56.4016 77.265 56.4016 77.8184V84.459C56.4016 85.0579 56.3202 85.6406 56.1574 86.207C56.0012 86.7799 55.731 87.2878 55.3469 87.7305C54.9693 88.1732 54.468 88.528 53.843 88.7949C53.218 89.0618 52.44 89.1953 51.509 89.1953C51.1835 89.1953 50.8547 89.1628 50.5227 89.0977C50.1906 89.0391 49.8749 88.9642 49.5754 88.873C49.2759 88.7884 49.0057 88.694 48.7648 88.5898C48.524 88.4857 48.3319 88.3945 48.1887 88.3164L47.8859 86.4414L48.0422 86.4023C48.1984 86.7409 48.41 87.0371 48.677 87.291C48.9504 87.5514 49.2466 87.7663 49.5656 87.9355C49.8846 88.1113 50.2134 88.2415 50.552 88.3262C50.897 88.4173 51.216 88.4629 51.509 88.4629ZM52.466 83.4629C52.9348 83.4629 53.3579 83.3848 53.7355 83.2285C54.1197 83.0723 54.4419 82.89 54.7023 82.6816V77.8184C54.7023 77.4538 54.6991 77.125 54.6926 76.832C54.6861 76.5326 54.6828 76.2624 54.6828 76.0215C54.5266 75.7806 54.3443 75.569 54.1359 75.3867C53.9341 75.1979 53.716 75.0417 53.4816 74.918C53.2538 74.7878 53.0194 74.6901 52.7785 74.625C52.5376 74.5534 52.3 74.5176 52.0656 74.5176C51.5708 74.5176 51.1249 74.6087 50.7277 74.791C50.3306 74.9733 49.9921 75.237 49.7121 75.582C49.4387 75.9206 49.2271 76.3372 49.0773 76.832C48.9341 77.3203 48.8625 77.877 48.8625 78.502C48.8625 79.2051 48.9406 79.8594 49.0969 80.4648C49.2531 81.0703 49.481 81.5977 49.7805 82.0469C50.0865 82.4896 50.4641 82.8379 50.9133 83.0918C51.3625 83.3392 51.8801 83.4629 52.466 83.4629ZM66.2781 77.418C66.2781 76.5586 66.1056 75.9271 65.7605 75.5234C65.4155 75.1198 64.9533 74.918 64.3738 74.918C64.1655 74.918 63.9311 74.9635 63.6707 75.0547C63.4103 75.1393 63.1434 75.2565 62.8699 75.4062C62.5965 75.5495 62.323 75.7188 62.0496 75.9141C61.7762 76.1094 61.519 76.3177 61.2781 76.5391L61.2586 77.8184V80.1816C61.2586 80.735 61.2651 81.2201 61.2781 81.6367C61.2911 82.0469 61.3107 82.4017 61.3367 82.7012C61.3628 83.0007 61.3921 83.2513 61.4246 83.4531C61.4572 83.6549 61.493 83.8242 61.532 83.9609V84H59.2762V83.9609C59.3152 83.8242 59.351 83.6549 59.3836 83.4531C59.4227 83.2513 59.452 83.0007 59.4715 82.7012C59.4975 82.4017 59.5171 82.0469 59.5301 81.6367C59.5496 81.2201 59.5594 80.735 59.5594 80.1816V77.8184C59.5594 77.265 59.5496 76.7832 59.5301 76.373C59.5171 75.9564 59.4975 75.5983 59.4715 75.2988C59.452 74.9993 59.4227 74.7487 59.3836 74.5469C59.351 74.3451 59.3152 74.1758 59.2762 74.0391V74H61.532V74.0391C61.4799 74.2018 61.4376 74.4102 61.4051 74.6641C61.379 74.9115 61.3497 75.237 61.3172 75.6406C61.5841 75.4193 61.8706 75.1979 62.1766 74.9766C62.4891 74.7552 62.8113 74.5599 63.1434 74.3906C63.4754 74.2148 63.8139 74.0749 64.159 73.9707C64.504 73.86 64.8426 73.8047 65.1746 73.8047C65.6824 73.8047 66.1121 73.8926 66.4637 74.0684C66.8217 74.2441 67.1115 74.4753 67.3328 74.7617C67.5607 75.0482 67.7234 75.377 67.8211 75.748C67.9253 76.1126 67.9773 76.4837 67.9773 76.8613V80.1816C67.9773 80.735 67.9839 81.2201 67.9969 81.6367C68.0099 82.0469 68.0294 82.4017 68.0555 82.7012C68.0815 83.0007 68.1108 83.2513 68.1434 83.4531C68.1759 83.6549 68.2117 83.8242 68.2508 83.9609V84H65.9949V83.9609C66.034 83.8242 66.0698 83.6549 66.1023 83.4531C66.1414 83.2513 66.1707 83.0007 66.1902 82.7012C66.2163 82.4017 66.2358 82.0469 66.2488 81.6367C66.2684 81.2201 66.2781 80.735 66.2781 80.1816V77.418ZM78.8633 80.582C78.8633 81.4414 79.0326 82.0729 79.3711 82.4766C79.7161 82.8802 80.1784 83.082 80.7578 83.082C80.9661 83.082 81.2005 83.0397 81.4609 82.9551C81.7214 82.8639 81.9883 82.7467 82.2617 82.6035C82.5417 82.4538 82.8184 82.2812 83.0918 82.0859C83.3717 81.8906 83.6289 81.6823 83.8633 81.4609C83.8763 81.2721 83.8828 81.0736 83.8828 80.8652C83.8828 80.6504 83.8828 80.4225 83.8828 80.1816V77.8184C83.8828 77.265 83.873 76.7832 83.8535 76.373C83.8405 75.9564 83.821 75.5983 83.7949 75.2988C83.7754 74.9993 83.7461 74.7487 83.707 74.5469C83.6745 74.3451 83.6387 74.1758 83.5996 74.0391V74H85.8555V74.0391C85.8164 74.1758 85.7806 74.3451 85.748 74.5469C85.7155 74.7487 85.6862 74.9993 85.6602 75.2988C85.6341 75.5983 85.6146 75.9564 85.6016 76.373C85.5885 76.7832 85.582 77.265 85.582 77.8184V80.1816C85.582 80.735 85.5885 81.2201 85.6016 81.6367C85.6146 82.0469 85.6341 82.4017 85.6602 82.7012C85.6862 83.0007 85.7155 83.2513 85.748 83.4531C85.7806 83.6549 85.8164 83.8242 85.8555 83.9609V84H83.5996V83.9609C83.6387 83.7982 83.6777 83.5898 83.7168 83.3359C83.7624 83.082 83.7949 82.75 83.8145 82.3398C83.5475 82.5677 83.2578 82.7923 82.9453 83.0137C82.6393 83.235 82.3171 83.4336 81.9785 83.6094C81.6465 83.7852 81.3079 83.9251 80.9629 84.0293C80.6243 84.14 80.2891 84.1953 79.957 84.1953C79.4492 84.1953 79.0163 84.1074 78.6582 83.9316C78.3066 83.7559 78.0169 83.5247 77.7891 83.2383C77.5677 82.9518 77.4049 82.6263 77.3008 82.2617C77.2031 81.8971 77.1543 81.5228 77.1543 81.1387V77.8184C77.1543 77.265 77.1478 76.7832 77.1348 76.373C77.1217 75.9564 77.1022 75.5983 77.0762 75.2988C77.0501 74.9993 77.0208 74.7487 76.9883 74.5469C76.9557 74.3451 76.9199 74.1758 76.8809 74.0391V74H79.1367V74.0391C79.0977 74.1758 79.0618 74.3451 79.0293 74.5469C78.9967 74.7487 78.9674 74.9993 78.9414 75.2988C78.9154 75.5983 78.8958 75.9564 78.8828 76.373C78.8698 76.7832 78.8633 77.265 78.8633 77.8184V80.582ZM88.7398 77.623C88.7398 77.0697 88.7301 76.5879 88.7105 76.1777C88.6975 75.7611 88.678 75.403 88.652 75.1035C88.6324 74.804 88.6031 74.5534 88.5641 74.3516C88.5315 74.1497 88.4957 73.9805 88.4566 73.8438V73.8047H90.7125V73.8438C90.6799 73.9414 90.6507 74.0521 90.6246 74.1758C90.5986 74.2995 90.5758 74.4395 90.5563 74.5957C90.9404 74.3743 91.3635 74.1888 91.8258 74.0391C92.2945 73.8828 92.8121 73.8047 93.3785 73.8047C94.1012 73.8047 94.7587 73.9284 95.3512 74.1758C95.9501 74.4167 96.4612 74.765 96.8844 75.2207C97.3141 75.6764 97.6461 76.2266 97.8805 76.8711C98.1148 77.5156 98.232 78.2383 98.232 79.0391C98.232 79.7096 98.1148 80.3542 97.8805 80.9727C97.6526 81.5911 97.3141 82.138 96.8648 82.6133C96.4221 83.0885 95.8753 83.4694 95.2242 83.7559C94.5732 84.0358 93.8245 84.1758 92.9781 84.1758C92.4703 84.1758 92.0081 84.1367 91.5914 84.0586C91.1747 83.9805 90.7906 83.8796 90.4391 83.7559V85.1816C90.4391 85.735 90.4456 86.2168 90.4586 86.627C90.4716 87.0436 90.4911 87.4017 90.5172 87.7012C90.5432 88.0007 90.5725 88.2513 90.6051 88.4531C90.6376 88.6549 90.6734 88.8242 90.7125 88.9609V89H88.4566V88.9609C88.4957 88.8242 88.5315 88.6549 88.5641 88.4531C88.6031 88.2513 88.6324 88.0007 88.652 87.7012C88.678 87.4017 88.6975 87.0436 88.7105 86.627C88.7301 86.2168 88.7398 85.735 88.7398 85.1816V77.623ZM93.0367 74.5371C92.8154 74.5371 92.5875 74.5664 92.3531 74.625C92.1253 74.6771 91.8974 74.7552 91.6695 74.8594C91.4482 74.957 91.2333 75.084 91.025 75.2402C90.8232 75.39 90.6409 75.5625 90.4781 75.7578C90.4651 76.0052 90.4553 76.2852 90.4488 76.5977C90.4423 76.9102 90.4391 77.252 90.4391 77.623V82.7402C90.5693 82.8379 90.7158 82.929 90.8785 83.0137C91.0413 83.0983 91.2236 83.1764 91.4254 83.248C91.6337 83.3132 91.8648 83.3652 92.1188 83.4043C92.3792 83.4434 92.6656 83.4629 92.9781 83.4629C93.4859 83.4629 93.9449 83.3717 94.3551 83.1895C94.7652 83.0072 95.1103 82.7435 95.3902 82.3984C95.6767 82.0534 95.8948 81.6335 96.0445 81.1387C96.2008 80.6439 96.2789 80.084 96.2789 79.459C96.2789 78.7559 96.2203 78.1048 96.1031 77.5059C95.9859 76.9004 95.7971 76.3796 95.5367 75.9434C95.2828 75.5007 94.9508 75.1556 94.5406 74.9082C94.1305 74.6608 93.6292 74.5371 93.0367 74.5371ZM116.397 83.4238C116.592 83.4238 116.784 83.388 116.973 83.3164C117.168 83.2448 117.354 83.1471 117.53 83.0234C117.712 82.8997 117.885 82.7598 118.047 82.6035C118.217 82.4408 118.373 82.2715 118.516 82.0957L118.614 82.1445L117.979 83.7168C117.901 83.7559 117.803 83.8047 117.686 83.8633C117.575 83.9154 117.439 83.9642 117.276 84.0098C117.12 84.0618 116.934 84.1042 116.719 84.1367C116.504 84.1758 116.25 84.1953 115.957 84.1953C115.085 84.1953 114.405 83.9609 113.916 83.4922C113.435 83.0169 113.194 82.278 113.194 81.2754V74.7617L111.553 74.8203V73.9609C111.755 73.974 111.996 73.9837 112.276 73.9902C112.556 73.9967 112.862 74 113.194 74C113.187 73.5378 113.174 73.1309 113.155 72.7793C113.142 72.4212 113.122 72.112 113.096 71.8516C113.077 71.5846 113.051 71.36 113.018 71.1777C112.985 70.9954 112.953 70.8424 112.92 70.7188V70.6797H115.176V70.7188C115.137 70.8424 115.101 70.9954 115.069 71.1777C115.036 71.36 115.007 71.5814 114.981 71.8418C114.961 72.1022 114.942 72.4115 114.922 72.7695C114.909 73.1211 114.899 73.5312 114.893 74C115.303 73.9935 115.704 73.987 116.094 73.9805C116.491 73.9674 116.849 73.9544 117.168 73.9414C117.494 73.9219 117.767 73.9056 117.989 73.8926C118.217 73.873 118.366 73.8568 118.438 73.8438L118.262 74.8398C117.93 74.8333 117.582 74.8236 117.217 74.8105C116.905 74.7975 116.547 74.7878 116.143 74.7812C115.739 74.7747 115.323 74.7682 114.893 74.7617V81.4805C114.893 81.8841 114.935 82.2129 115.02 82.4668C115.111 82.7142 115.225 82.9095 115.362 83.0527C115.505 83.196 115.664 83.2936 115.84 83.3457C116.023 83.3978 116.208 83.4238 116.397 83.4238ZM119.867 78.9805C119.867 78.2448 120.004 77.5645 120.277 76.9395C120.551 76.3079 120.925 75.7611 121.4 75.2988C121.882 74.8366 122.449 74.4753 123.1 74.2148C123.751 73.9544 124.451 73.8242 125.199 73.8242C125.935 73.8242 126.625 73.9479 127.27 74.1953C127.921 74.4362 128.487 74.7812 128.969 75.2305C129.451 75.6797 129.828 76.2266 130.102 76.8711C130.382 77.5156 130.521 78.2383 130.521 79.0391C130.521 79.7096 130.404 80.3542 130.17 80.9727C129.936 81.5911 129.59 82.138 129.135 82.6133C128.679 83.0885 128.119 83.4694 127.455 83.7559C126.798 84.0358 126.039 84.1758 125.18 84.1758C124.451 84.1758 123.764 84.0553 123.119 83.8145C122.475 83.5736 121.911 83.2285 121.43 82.7793C120.948 82.3301 120.567 81.7865 120.287 81.1484C120.007 80.5039 119.867 79.7812 119.867 78.9805ZM125.404 83.4629C125.867 83.4629 126.29 83.3717 126.674 83.1895C127.064 83.0072 127.4 82.7435 127.68 82.3984C127.96 82.0534 128.178 81.6335 128.334 81.1387C128.49 80.6439 128.568 80.084 128.568 79.459C128.568 78.7559 128.493 78.1048 128.344 77.5059C128.194 76.9004 127.969 76.3796 127.67 75.9434C127.377 75.5007 127.006 75.1556 126.557 74.9082C126.107 74.6608 125.583 74.5371 124.984 74.5371C124.522 74.5371 124.099 74.6283 123.715 74.8105C123.331 74.9863 122.995 75.2435 122.709 75.582C122.429 75.9206 122.211 76.3372 122.055 76.832C121.898 77.3203 121.82 77.877 121.82 78.502C121.82 79.2051 121.895 79.8594 122.045 80.4648C122.201 81.0703 122.429 81.5977 122.729 82.0469C123.028 82.4896 123.399 82.8379 123.842 83.0918C124.291 83.3392 124.812 83.4629 125.404 83.4629ZM137.322 73.8242C137.589 73.8242 137.856 73.847 138.123 73.8926C138.39 73.9382 138.65 74.0033 138.904 74.0879C139.158 74.1725 139.399 74.2767 139.627 74.4004C139.854 74.5241 140.06 74.6641 140.242 74.8203V73.2188C140.242 72.6654 140.235 72.1836 140.222 71.7734C140.209 71.3568 140.19 70.9987 140.164 70.6992C140.138 70.3997 140.108 70.1491 140.076 69.9473C140.043 69.7454 140.007 69.5762 139.968 69.4395V69.4004H142.224V69.4395C142.185 69.5762 142.146 69.7454 142.107 69.9473C142.074 70.1491 142.045 70.3997 142.019 70.6992C142 70.9987 141.98 71.3568 141.961 71.7734C141.948 72.1836 141.941 72.6654 141.941 73.2188V80.1816C141.941 80.735 141.948 81.2201 141.961 81.6367C141.98 82.0469 142 82.4017 142.019 82.7012C142.045 83.0007 142.074 83.2513 142.107 83.4531C142.146 83.6549 142.185 83.8242 142.224 83.9609V84H140.066V83.9609C140.086 83.9089 140.102 83.834 140.115 83.7363C140.128 83.6322 140.144 83.5052 140.164 83.3555C139.832 83.5638 139.415 83.7526 138.914 83.9219C138.412 84.0911 137.83 84.1758 137.166 84.1758C136.391 84.1758 135.688 84.0553 135.056 83.8145C134.425 83.5736 133.884 83.2285 133.435 82.7793C132.992 82.3301 132.651 81.7865 132.41 81.1484C132.169 80.5039 132.048 79.7812 132.048 78.9805C132.048 78.2448 132.179 77.5645 132.439 76.9395C132.699 76.3079 133.064 75.7611 133.533 75.2988C134.002 74.8366 134.558 74.4753 135.203 74.2148C135.847 73.9544 136.554 73.8242 137.322 73.8242ZM140.242 76.5391C139.981 75.8555 139.607 75.3509 139.119 75.0254C138.637 74.6999 138.093 74.5371 137.488 74.5371C136.98 74.5371 136.511 74.6283 136.082 74.8105C135.652 74.9863 135.284 75.2435 134.978 75.582C134.672 75.9206 134.431 76.3372 134.255 76.832C134.086 77.3203 134.002 77.877 134.002 78.502C134.002 79.2051 134.08 79.8594 134.236 80.4648C134.392 81.0703 134.62 81.5977 134.92 82.0469C135.226 82.4896 135.603 82.8379 136.052 83.0918C136.502 83.3392 137.019 83.4629 137.605 83.4629C137.911 83.4629 138.198 83.4271 138.464 83.3555C138.731 83.2839 138.976 83.1927 139.197 83.082C139.418 82.9714 139.614 82.8509 139.783 82.7207C139.952 82.584 140.092 82.4505 140.203 82.3203C140.216 82.0404 140.226 81.7214 140.232 81.3633C140.239 81.0052 140.242 80.6113 140.242 80.1816V76.5391ZM144.327 81.1191C144.327 80.6048 144.432 80.1589 144.64 79.7812C144.855 79.4036 145.138 79.0814 145.489 78.8145C145.841 78.5475 146.241 78.3327 146.691 78.1699C147.14 78.0007 147.605 77.8704 148.087 77.7793C148.569 77.6816 149.044 77.6165 149.513 77.584C149.982 77.5449 150.411 77.5221 150.802 77.5156V77.0176C150.802 76.5879 150.747 76.2168 150.636 75.9043C150.525 75.5918 150.369 75.3346 150.167 75.1328C149.965 74.9245 149.721 74.7715 149.435 74.6738C149.155 74.5697 148.846 74.5176 148.507 74.5176C148.273 74.5176 148.042 74.5371 147.814 74.5762C147.586 74.6152 147.348 74.6803 147.101 74.7715C146.86 74.8626 146.603 74.9863 146.329 75.1426C146.062 75.2988 145.773 75.4974 145.46 75.7383L145.363 75.6797L146.027 74.3027C146.241 74.2051 146.453 74.127 146.661 74.0684C146.87 74.0033 147.081 73.9512 147.296 73.9121C147.511 73.873 147.729 73.847 147.95 73.834C148.178 73.8145 148.416 73.8047 148.663 73.8047C149.347 73.8047 149.93 73.8893 150.411 74.0586C150.9 74.2214 151.297 74.4492 151.603 74.7422C151.915 75.0286 152.143 75.3672 152.286 75.7578C152.43 76.1419 152.501 76.5553 152.501 76.998V80.1816C152.501 80.735 152.508 81.2201 152.521 81.6367C152.54 82.0469 152.56 82.4017 152.579 82.7012C152.605 83.0007 152.635 83.2513 152.667 83.4531C152.706 83.6549 152.745 83.8242 152.784 83.9609V84H150.626V83.9609C150.659 83.8568 150.682 83.7396 150.695 83.6094C150.714 83.4792 150.73 83.3229 150.743 83.1406C150.607 83.2578 150.444 83.3783 150.255 83.502C150.073 83.6257 149.861 83.7396 149.62 83.8438C149.386 83.9414 149.122 84.0195 148.829 84.0781C148.543 84.1432 148.227 84.1758 147.882 84.1758C146.749 84.1758 145.874 83.9121 145.255 83.3848C144.637 82.8509 144.327 82.0957 144.327 81.1191ZM150.802 78.2773C150.21 78.2839 149.64 78.3197 149.093 78.3848C148.546 78.4434 148.061 78.5703 147.638 78.7656C147.221 78.9609 146.886 79.2409 146.632 79.6055C146.385 79.9635 146.261 80.4421 146.261 81.041C146.261 81.8092 146.453 82.3952 146.837 82.7988C147.221 83.2025 147.752 83.4043 148.429 83.4043C148.741 83.4043 149.025 83.362 149.279 83.2773C149.539 83.1862 149.767 83.0755 149.962 82.9453C150.164 82.8086 150.333 82.6621 150.47 82.5059C150.607 82.3431 150.711 82.1868 150.782 82.0371C150.795 81.7897 150.802 81.5163 150.802 81.2168C150.802 80.9108 150.802 80.5658 150.802 80.1816V78.2773ZM158.745 83.8828L155.307 76.3633C155.184 76.0768 155.05 75.8034 154.907 75.543C154.764 75.276 154.627 75.0384 154.497 74.8301C154.373 74.6217 154.262 74.4492 154.165 74.3125C154.067 74.1693 154.002 74.0781 153.97 74.0391V74H156.528V74.0391C156.515 74.0716 156.505 74.1204 156.499 74.1855C156.492 74.2507 156.489 74.3092 156.489 74.3613C156.489 74.5632 156.518 74.7878 156.577 75.0352C156.642 75.276 156.759 75.5788 156.929 75.9434L159.624 81.8027L162.085 76.0215C162.189 75.7806 162.293 75.5169 162.397 75.2305C162.508 74.944 162.563 74.6543 162.563 74.3613C162.563 74.2767 162.557 74.2083 162.544 74.1562C162.531 74.0977 162.518 74.0586 162.505 74.0391V74H164.262V74.0391C164.145 74.1628 163.996 74.3841 163.813 74.7031C163.637 75.0156 163.449 75.4095 163.247 75.8848L158.589 86.9785C158.485 87.2194 158.377 87.4831 158.266 87.7695C158.162 88.056 158.11 88.3457 158.11 88.6387C158.11 88.7233 158.117 88.7917 158.13 88.8438C158.143 88.9023 158.156 88.9414 158.169 88.9609V89H156.343V88.9609C156.466 88.8372 156.616 88.6191 156.792 88.3066C156.974 88.0007 157.166 87.6133 157.368 87.1445L158.745 83.8828ZM177.658 72.2227H177.443C177.391 72.0729 177.307 71.9036 177.189 71.7148C177.079 71.526 176.929 71.3503 176.74 71.1875C176.558 71.0182 176.333 70.8783 176.066 70.7676C175.806 70.6569 175.497 70.6016 175.139 70.6016C174.82 70.6016 174.536 70.6504 174.289 70.748C174.042 70.8457 173.833 70.9824 173.664 71.1582C173.501 71.334 173.378 71.5423 173.293 71.7832C173.208 72.0241 173.166 72.291 173.166 72.584C173.166 73.0527 173.296 73.502 173.557 73.9316C173.824 74.3548 174.156 74.7747 174.553 75.1914C174.95 75.6081 175.38 76.0247 175.842 76.4414C176.304 76.8581 176.734 77.291 177.131 77.7402C177.528 78.1895 177.857 78.6615 178.117 79.1562C178.384 79.6445 178.518 80.1719 178.518 80.7383C178.518 81.1615 178.443 81.5879 178.293 82.0176C178.15 82.4408 177.925 82.8216 177.619 83.1602C177.313 83.4987 176.919 83.7754 176.438 83.9902C175.956 84.1986 175.383 84.3027 174.719 84.3027C174.348 84.3027 173.993 84.2669 173.654 84.1953C173.322 84.1302 173.013 84.0488 172.727 83.9512C172.447 83.847 172.193 83.7363 171.965 83.6191C171.743 83.502 171.561 83.3945 171.418 83.2969L171.643 81.1387H171.887C171.958 81.4447 172.076 81.7376 172.238 82.0176C172.401 82.291 172.6 82.5352 172.834 82.75C173.075 82.9583 173.348 83.1276 173.654 83.2578C173.96 83.3815 174.296 83.4434 174.66 83.4434C174.992 83.4434 175.288 83.3945 175.549 83.2969C175.816 83.1927 176.044 83.0527 176.232 82.877C176.421 82.6947 176.564 82.4798 176.662 82.2324C176.766 81.985 176.818 81.7148 176.818 81.4219C176.818 81.0117 176.743 80.6341 176.594 80.2891C176.444 79.9375 176.245 79.6055 175.998 79.293C175.757 78.9805 175.48 78.6777 175.168 78.3848C174.862 78.0918 174.546 77.7988 174.221 77.5059C173.895 77.2064 173.576 76.9004 173.264 76.5879C172.958 76.2754 172.681 75.9434 172.434 75.5918C172.193 75.2337 171.997 74.8529 171.848 74.4492C171.698 74.0391 171.623 73.5898 171.623 73.1016C171.623 72.5872 171.721 72.125 171.916 71.7148C172.118 71.2982 172.382 70.9434 172.707 70.6504C173.039 70.3574 173.413 70.1328 173.83 69.9766C174.247 69.8203 174.676 69.7422 175.119 69.7422C175.445 69.7422 175.744 69.7682 176.018 69.8203C176.291 69.8724 176.535 69.9342 176.75 70.0059C176.971 70.0775 177.163 70.1491 177.326 70.2207C177.489 70.2923 177.622 70.3509 177.727 70.3965L177.658 72.2227ZM181.236 77.8184C181.236 77.265 181.226 76.7832 181.207 76.373C181.194 75.9564 181.174 75.5983 181.148 75.2988C181.129 74.9993 181.099 74.7487 181.06 74.5469C181.028 74.3451 180.992 74.1758 180.953 74.0391V74H183.209V74.0391C183.17 74.1758 183.134 74.3451 183.101 74.5469C183.069 74.7487 183.039 74.9993 183.013 75.2988C182.987 75.5983 182.968 75.9564 182.955 76.373C182.942 76.7832 182.935 77.265 182.935 77.8184V80.1816C182.935 80.735 182.942 81.2201 182.955 81.6367C182.968 82.0469 182.987 82.4017 183.013 82.7012C183.039 83.0007 183.069 83.2513 183.101 83.4531C183.134 83.6549 183.17 83.8242 183.209 83.9609V84H180.953V83.9609C180.992 83.8242 181.028 83.6549 181.06 83.4531C181.099 83.2513 181.129 83.0007 181.148 82.7012C181.174 82.4017 181.194 82.0469 181.207 81.6367C181.226 81.2201 181.236 80.735 181.236 80.1816V77.8184ZM181.031 71.041C181.031 70.8978 181.057 70.7643 181.109 70.6406C181.168 70.5104 181.242 70.3997 181.334 70.3086C181.425 70.2109 181.532 70.1361 181.656 70.084C181.786 70.0254 181.926 69.9961 182.076 69.9961C182.226 69.9961 182.362 70.0254 182.486 70.084C182.616 70.1361 182.727 70.2109 182.818 70.3086C182.916 70.3997 182.99 70.5104 183.043 70.6406C183.101 70.7643 183.13 70.8978 183.13 71.041C183.13 71.3405 183.03 71.5911 182.828 71.793C182.626 71.9948 182.375 72.0957 182.076 72.0957C181.926 72.0957 181.786 72.0697 181.656 72.0176C181.532 71.959 181.425 71.8841 181.334 71.793C181.242 71.6953 181.168 71.5846 181.109 71.4609C181.057 71.3307 181.031 71.1908 181.031 71.041ZM189.931 88.4629C190.458 88.4629 190.904 88.4043 191.269 88.2871C191.633 88.1764 191.933 88.0202 192.167 87.8184C192.408 87.6165 192.59 87.3724 192.714 87.0859C192.844 86.806 192.939 86.4967 192.997 86.1582C193.062 85.8197 193.098 85.4583 193.105 85.0742C193.118 84.6901 193.124 84.293 193.124 83.8828V83.5605C192.805 83.7298 192.421 83.8763 191.972 84C191.523 84.1172 191.015 84.1758 190.448 84.1758C189.674 84.1758 188.971 84.0553 188.339 83.8145C187.708 83.5736 187.167 83.2285 186.718 82.7793C186.275 82.3301 185.933 81.7865 185.693 81.1484C185.452 80.5039 185.331 79.7812 185.331 78.9805C185.331 78.2448 185.448 77.5612 185.683 76.9297C185.924 76.2982 186.259 75.7513 186.689 75.2891C187.125 74.8268 187.642 74.4655 188.241 74.2051C188.847 73.9382 189.514 73.8047 190.243 73.8047C190.556 73.8047 190.842 73.8307 191.103 73.8828C191.363 73.9349 191.604 74.0065 191.825 74.0977C192.053 74.1823 192.265 74.2832 192.46 74.4004C192.662 74.5111 192.857 74.6315 193.046 74.7617L192.948 74.0391V74H195.107V74.0391C195.068 74.1758 195.029 74.3451 194.989 74.5469C194.957 74.7487 194.928 74.9993 194.902 75.2988C194.882 75.5983 194.863 75.9564 194.843 76.373C194.83 76.7832 194.823 77.265 194.823 77.8184V84.459C194.823 85.0579 194.742 85.6406 194.579 86.207C194.423 86.7799 194.153 87.2878 193.769 87.7305C193.391 88.1732 192.89 88.528 192.265 88.7949C191.64 89.0618 190.862 89.1953 189.931 89.1953C189.605 89.1953 189.277 89.1628 188.945 89.0977C188.613 89.0391 188.297 88.9642 187.997 88.873C187.698 88.7884 187.428 88.694 187.187 88.5898C186.946 88.4857 186.754 88.3945 186.611 88.3164L186.308 86.4414L186.464 86.4023C186.62 86.7409 186.832 87.0371 187.099 87.291C187.372 87.5514 187.668 87.7663 187.988 87.9355C188.307 88.1113 188.635 88.2415 188.974 88.3262C189.319 88.4173 189.638 88.4629 189.931 88.4629ZM190.888 83.4629C191.357 83.4629 191.78 83.3848 192.157 83.2285C192.542 83.0723 192.864 82.89 193.124 82.6816V77.8184C193.124 77.4538 193.121 77.125 193.114 76.832C193.108 76.5326 193.105 76.2624 193.105 76.0215C192.948 75.7806 192.766 75.569 192.558 75.3867C192.356 75.1979 192.138 75.0417 191.904 74.918C191.676 74.7878 191.441 74.6901 191.2 74.625C190.96 74.5534 190.722 74.5176 190.488 74.5176C189.993 74.5176 189.547 74.6087 189.15 74.791C188.752 74.9733 188.414 75.237 188.134 75.582C187.861 75.9206 187.649 76.3372 187.499 76.832C187.356 77.3203 187.284 77.877 187.284 78.502C187.284 79.2051 187.363 79.8594 187.519 80.4648C187.675 81.0703 187.903 81.5977 188.202 82.0469C188.508 82.4896 188.886 82.8379 189.335 83.0918C189.784 83.3392 190.302 83.4629 190.888 83.4629ZM204.7 77.418C204.7 76.5586 204.527 75.9271 204.182 75.5234C203.837 75.1198 203.375 74.918 202.796 74.918C202.587 74.918 202.353 74.9635 202.093 75.0547C201.832 75.1393 201.565 75.2565 201.292 75.4062C201.018 75.5495 200.745 75.7188 200.471 75.9141C200.198 76.1094 199.941 76.3177 199.7 76.5391L199.68 77.8184V80.1816C199.68 80.735 199.687 81.2201 199.7 81.6367C199.713 82.0469 199.733 82.4017 199.759 82.7012C199.785 83.0007 199.814 83.2513 199.846 83.4531C199.879 83.6549 199.915 83.8242 199.954 83.9609V84H197.698V83.9609C197.737 83.8242 197.773 83.6549 197.805 83.4531C197.845 83.2513 197.874 83.0007 197.893 82.7012C197.919 82.4017 197.939 82.0469 197.952 81.6367C197.971 81.2201 197.981 80.735 197.981 80.1816V77.8184C197.981 77.265 197.971 76.7832 197.952 76.373C197.939 75.9564 197.919 75.5983 197.893 75.2988C197.874 74.9993 197.845 74.7487 197.805 74.5469C197.773 74.3451 197.737 74.1758 197.698 74.0391V74H199.954V74.0391C199.902 74.2018 199.86 74.4102 199.827 74.6641C199.801 74.9115 199.772 75.237 199.739 75.6406C200.006 75.4193 200.292 75.1979 200.598 74.9766C200.911 74.7552 201.233 74.5599 201.565 74.3906C201.897 74.2148 202.236 74.0749 202.581 73.9707C202.926 73.86 203.264 73.8047 203.596 73.8047C204.104 73.8047 204.534 73.8926 204.886 74.0684C205.244 74.2441 205.533 74.4753 205.755 74.7617C205.983 75.0482 206.145 75.377 206.243 75.748C206.347 76.1126 206.399 76.4837 206.399 76.8613V80.1816C206.399 80.735 206.406 81.2201 206.419 81.6367C206.432 82.0469 206.451 82.4017 206.477 82.7012C206.503 83.0007 206.533 83.2513 206.565 83.4531C206.598 83.6549 206.634 83.8242 206.673 83.9609V84H204.417V83.9609C204.456 83.8242 204.492 83.6549 204.524 83.4531C204.563 83.2513 204.593 83.0007 204.612 82.7012C204.638 82.4017 204.658 82.0469 204.671 81.6367C204.69 81.2201 204.7 80.735 204.7 80.1816V77.418ZM217.285 80.582C217.285 81.4414 217.454 82.0729 217.793 82.4766C218.138 82.8802 218.6 83.082 219.18 83.082C219.388 83.082 219.622 83.0397 219.883 82.9551C220.143 82.8639 220.41 82.7467 220.684 82.6035C220.964 82.4538 221.24 82.2812 221.514 82.0859C221.794 81.8906 222.051 81.6823 222.285 81.4609C222.298 81.2721 222.305 81.0736 222.305 80.8652C222.305 80.6504 222.305 80.4225 222.305 80.1816V77.8184C222.305 77.265 222.295 76.7832 222.275 76.373C222.262 75.9564 222.243 75.5983 222.217 75.2988C222.197 74.9993 222.168 74.7487 222.129 74.5469C222.096 74.3451 222.061 74.1758 222.021 74.0391V74H224.277V74.0391C224.238 74.1758 224.202 74.3451 224.17 74.5469C224.137 74.7487 224.108 74.9993 224.082 75.2988C224.056 75.5983 224.036 75.9564 224.023 76.373C224.01 76.7832 224.004 77.265 224.004 77.8184V80.1816C224.004 80.735 224.01 81.2201 224.023 81.6367C224.036 82.0469 224.056 82.4017 224.082 82.7012C224.108 83.0007 224.137 83.2513 224.17 83.4531C224.202 83.6549 224.238 83.8242 224.277 83.9609V84H222.021V83.9609C222.061 83.7982 222.1 83.5898 222.139 83.3359C222.184 83.082 222.217 82.75 222.236 82.3398C221.969 82.5677 221.68 82.7923 221.367 83.0137C221.061 83.235 220.739 83.4336 220.4 83.6094C220.068 83.7852 219.73 83.9251 219.385 84.0293C219.046 84.14 218.711 84.1953 218.379 84.1953C217.871 84.1953 217.438 84.1074 217.08 83.9316C216.729 83.7559 216.439 83.5247 216.211 83.2383C215.99 82.9518 215.827 82.6263 215.723 82.2617C215.625 81.8971 215.576 81.5228 215.576 81.1387V77.8184C215.576 77.265 215.57 76.7832 215.557 76.373C215.544 75.9564 215.524 75.5983 215.498 75.2988C215.472 74.9993 215.443 74.7487 215.41 74.5469C215.378 74.3451 215.342 74.1758 215.303 74.0391V74H217.559V74.0391C217.52 74.1758 217.484 74.3451 217.451 74.5469C217.419 74.7487 217.389 74.9993 217.363 75.2988C217.337 75.5983 217.318 75.9564 217.305 76.373C217.292 76.7832 217.285 77.265 217.285 77.8184V80.582ZM227.162 77.623C227.162 77.0697 227.152 76.5879 227.132 76.1777C227.119 75.7611 227.1 75.403 227.074 75.1035C227.054 74.804 227.025 74.5534 226.986 74.3516C226.953 74.1497 226.918 73.9805 226.879 73.8438V73.8047H229.134V73.8438C229.102 73.9414 229.073 74.0521 229.046 74.1758C229.02 74.2995 228.998 74.4395 228.978 74.5957C229.362 74.3743 229.785 74.1888 230.248 74.0391C230.716 73.8828 231.234 73.8047 231.8 73.8047C232.523 73.8047 233.181 73.9284 233.773 74.1758C234.372 74.4167 234.883 74.765 235.306 75.2207C235.736 75.6764 236.068 76.2266 236.302 76.8711C236.537 77.5156 236.654 78.2383 236.654 79.0391C236.654 79.7096 236.537 80.3542 236.302 80.9727C236.074 81.5911 235.736 82.138 235.287 82.6133C234.844 83.0885 234.297 83.4694 233.646 83.7559C232.995 84.0358 232.246 84.1758 231.4 84.1758C230.892 84.1758 230.43 84.1367 230.013 84.0586C229.597 83.9805 229.212 83.8796 228.861 83.7559V85.1816C228.861 85.735 228.867 86.2168 228.88 86.627C228.893 87.0436 228.913 87.4017 228.939 87.7012C228.965 88.0007 228.994 88.2513 229.027 88.4531C229.059 88.6549 229.095 88.8242 229.134 88.9609V89H226.879V88.9609C226.918 88.8242 226.953 88.6549 226.986 88.4531C227.025 88.2513 227.054 88.0007 227.074 87.7012C227.1 87.4017 227.119 87.0436 227.132 86.627C227.152 86.2168 227.162 85.735 227.162 85.1816V77.623ZM231.459 74.5371C231.237 74.5371 231.009 74.5664 230.775 74.625C230.547 74.6771 230.319 74.7552 230.091 74.8594C229.87 74.957 229.655 75.084 229.447 75.2402C229.245 75.39 229.063 75.5625 228.9 75.7578C228.887 76.0052 228.877 76.2852 228.871 76.5977C228.864 76.9102 228.861 77.252 228.861 77.623V82.7402C228.991 82.8379 229.138 82.929 229.3 83.0137C229.463 83.0983 229.645 83.1764 229.847 83.248C230.056 83.3132 230.287 83.3652 230.541 83.4043C230.801 83.4434 231.087 83.4629 231.4 83.4629C231.908 83.4629 232.367 83.3717 232.777 83.1895C233.187 83.0072 233.532 82.7435 233.812 82.3984C234.099 82.0534 234.317 81.6335 234.466 81.1387C234.623 80.6439 234.701 80.084 234.701 79.459C234.701 78.7559 234.642 78.1048 234.525 77.5059C234.408 76.9004 234.219 76.3796 233.959 75.9434C233.705 75.5007 233.373 75.1556 232.962 74.9082C232.552 74.6608 232.051 74.5371 231.459 74.5371ZM40.5664 125.021C40.8984 125.021 41.2249 124.96 41.5459 124.838C41.8779 124.716 42.1934 124.55 42.4922 124.34C42.8021 124.13 43.0954 123.892 43.3721 123.626C43.6598 123.349 43.9255 123.062 44.1689 122.763L44.335 122.846L43.2559 125.519C43.123 125.585 42.957 125.668 42.7578 125.768C42.5697 125.856 42.3372 125.939 42.0605 126.017C41.7949 126.105 41.4795 126.177 41.1143 126.232C40.749 126.299 40.3174 126.332 39.8193 126.332C38.3363 126.332 37.1797 125.934 36.3496 125.137C35.5306 124.329 35.1211 123.073 35.1211 121.368V110.295L32.332 110.395V108.934C32.6751 108.956 33.0846 108.972 33.5605 108.983C34.0365 108.994 34.5566 109 35.1211 109C35.11 108.214 35.0879 107.522 35.0547 106.925C35.0326 106.316 34.9993 105.79 34.9551 105.348C34.9219 104.894 34.8776 104.512 34.8223 104.202C34.7669 103.892 34.7116 103.632 34.6562 103.422V103.355H38.4912V103.422C38.4248 103.632 38.3639 103.892 38.3086 104.202C38.2533 104.512 38.2035 104.888 38.1592 105.331C38.126 105.774 38.0928 106.299 38.0596 106.908C38.0374 107.506 38.0208 108.203 38.0098 109C38.707 108.989 39.3877 108.978 40.0518 108.967C40.7269 108.945 41.3356 108.923 41.8779 108.9C42.4313 108.867 42.8962 108.84 43.2725 108.817C43.6598 108.784 43.9144 108.757 44.0361 108.734L43.7373 110.428C43.1729 110.417 42.5807 110.4 41.9609 110.378C41.4297 110.356 40.821 110.339 40.1348 110.328C39.4486 110.317 38.7402 110.306 38.0098 110.295V121.717C38.0098 122.403 38.0817 122.962 38.2256 123.394C38.3805 123.814 38.5742 124.146 38.8066 124.39C39.0501 124.633 39.3213 124.799 39.6201 124.888C39.93 124.976 40.2454 125.021 40.5664 125.021ZM46.4609 117.467C46.4609 116.216 46.6934 115.06 47.1582 113.997C47.623 112.924 48.2594 111.994 49.0674 111.208C49.8864 110.422 50.8493 109.808 51.9561 109.365C53.0628 108.923 54.2526 108.701 55.5254 108.701C56.776 108.701 57.9492 108.911 59.0449 109.332C60.1517 109.742 61.1146 110.328 61.9336 111.092C62.7526 111.855 63.3945 112.785 63.8594 113.881C64.3353 114.977 64.5732 116.205 64.5732 117.566C64.5732 118.706 64.374 119.802 63.9756 120.854C63.5771 121.905 62.9906 122.835 62.2158 123.643C61.4411 124.451 60.4893 125.098 59.3604 125.585C58.2425 126.061 56.9531 126.299 55.4922 126.299C54.2526 126.299 53.085 126.094 51.9893 125.685C50.8936 125.275 49.9362 124.688 49.1172 123.925C48.2982 123.161 47.6507 122.237 47.1748 121.152C46.6989 120.057 46.4609 118.828 46.4609 117.467ZM55.874 125.087C56.6598 125.087 57.3792 124.932 58.0322 124.622C58.6963 124.312 59.2663 123.864 59.7422 123.277C60.2181 122.691 60.5889 121.977 60.8545 121.136C61.1201 120.295 61.2529 119.343 61.2529 118.28C61.2529 117.085 61.1257 115.978 60.8711 114.96C60.6165 113.931 60.2347 113.045 59.7256 112.304C59.2275 111.551 58.5967 110.965 57.833 110.544C57.0693 110.123 56.1784 109.913 55.1602 109.913C54.3743 109.913 53.6549 110.068 53.002 110.378C52.349 110.677 51.779 111.114 51.292 111.689C50.8161 112.265 50.4453 112.973 50.1797 113.814C49.9141 114.645 49.7812 115.591 49.7812 116.653C49.7812 117.849 49.9085 118.961 50.1631 119.99C50.4287 121.02 50.8161 121.916 51.3252 122.68C51.8343 123.432 52.4652 124.024 53.2178 124.456C53.9814 124.877 54.8669 125.087 55.874 125.087ZM76.1289 108.701C76.5827 108.701 77.0365 108.74 77.4902 108.817C77.944 108.895 78.3867 109.006 78.8184 109.149C79.25 109.293 79.6595 109.47 80.0469 109.681C80.4342 109.891 80.7829 110.129 81.0928 110.395V107.672C81.0928 106.731 81.0817 105.912 81.0596 105.215C81.0374 104.507 81.0042 103.898 80.96 103.389C80.9157 102.88 80.8659 102.453 80.8105 102.11C80.7552 101.767 80.6943 101.479 80.6279 101.247V101.181H84.4629V101.247C84.3965 101.479 84.3301 101.767 84.2637 102.11C84.2083 102.453 84.1585 102.88 84.1143 103.389C84.0811 103.898 84.0479 104.507 84.0146 105.215C83.9925 105.912 83.9814 106.731 83.9814 107.672V119.509C83.9814 120.45 83.9925 121.274 84.0146 121.982C84.0479 122.68 84.0811 123.283 84.1143 123.792C84.1585 124.301 84.2083 124.727 84.2637 125.07C84.3301 125.413 84.3965 125.701 84.4629 125.934V126H80.7939V125.934C80.8271 125.845 80.8548 125.718 80.877 125.552C80.8991 125.375 80.9268 125.159 80.96 124.904C80.3955 125.258 79.6872 125.579 78.835 125.867C77.9827 126.155 76.9922 126.299 75.8633 126.299C74.5462 126.299 73.3509 126.094 72.2773 125.685C71.2038 125.275 70.2852 124.688 69.5215 123.925C68.7689 123.161 68.1878 122.237 67.7783 121.152C67.3688 120.057 67.1641 118.828 67.1641 117.467C67.1641 116.216 67.3854 115.06 67.8281 113.997C68.2708 112.924 68.8906 111.994 69.6875 111.208C70.4844 110.422 71.4307 109.808 72.5264 109.365C73.6221 108.923 74.8229 108.701 76.1289 108.701ZM81.0928 113.316C80.6501 112.154 80.0137 111.297 79.1836 110.743C78.3646 110.19 77.4404 109.913 76.4111 109.913C75.5479 109.913 74.751 110.068 74.0205 110.378C73.29 110.677 72.6647 111.114 72.1445 111.689C71.6243 112.265 71.2148 112.973 70.916 113.814C70.6283 114.645 70.4844 115.591 70.4844 116.653C70.4844 117.849 70.6172 118.961 70.8828 119.99C71.1484 121.02 71.5358 121.916 72.0449 122.68C72.5651 123.432 73.207 124.024 73.9707 124.456C74.7344 124.877 75.6143 125.087 76.6104 125.087C77.1305 125.087 77.6175 125.026 78.0713 124.904C78.5251 124.783 78.9401 124.628 79.3164 124.439C79.6927 124.251 80.0247 124.047 80.3125 123.825C80.6003 123.593 80.8382 123.366 81.0264 123.145C81.0485 122.669 81.0651 122.126 81.0762 121.518C81.0872 120.909 81.0928 120.239 81.0928 119.509V113.316ZM88.0332 121.103C88.0332 120.228 88.2103 119.47 88.5645 118.828C88.9297 118.186 89.4111 117.638 90.0088 117.185C90.6064 116.731 91.2871 116.366 92.0508 116.089C92.8145 115.801 93.6058 115.58 94.4248 115.425C95.2438 115.259 96.0518 115.148 96.8486 115.093C97.6455 115.026 98.376 114.988 99.04 114.977V114.13C99.04 113.399 98.946 112.769 98.7578 112.237C98.5697 111.706 98.304 111.269 97.9609 110.926C97.6178 110.572 97.2028 110.312 96.7158 110.146C96.2399 109.968 95.7142 109.88 95.1387 109.88C94.7402 109.88 94.3473 109.913 93.96 109.979C93.5726 110.046 93.1686 110.157 92.748 110.312C92.3385 110.466 91.9014 110.677 91.4365 110.942C90.9827 111.208 90.4902 111.546 89.959 111.955L89.793 111.855L90.9219 109.515C91.2871 109.349 91.6468 109.216 92.001 109.116C92.3551 109.006 92.7148 108.917 93.0801 108.851C93.4453 108.784 93.8161 108.74 94.1924 108.718C94.5798 108.685 94.9837 108.668 95.4043 108.668C96.5664 108.668 97.557 108.812 98.376 109.1C99.2061 109.376 99.8812 109.764 100.401 110.262C100.933 110.749 101.32 111.324 101.563 111.988C101.807 112.641 101.929 113.344 101.929 114.097V119.509C101.929 120.45 101.94 121.274 101.962 121.982C101.995 122.68 102.028 123.283 102.062 123.792C102.106 124.301 102.156 124.727 102.211 125.07C102.277 125.413 102.344 125.701 102.41 125.934V126H98.7412V125.934C98.7965 125.757 98.8353 125.557 98.8574 125.336C98.8906 125.115 98.9183 124.849 98.9404 124.539C98.708 124.738 98.4313 124.943 98.1104 125.153C97.8005 125.364 97.4408 125.557 97.0312 125.734C96.6328 125.9 96.1846 126.033 95.6865 126.133C95.1995 126.243 94.6628 126.299 94.0762 126.299C92.1504 126.299 90.6618 125.851 89.6104 124.954C88.5589 124.047 88.0332 122.763 88.0332 121.103ZM99.04 116.271C98.0329 116.283 97.0645 116.343 96.1348 116.454C95.2051 116.554 94.3805 116.77 93.6611 117.102C92.9528 117.434 92.3828 117.91 91.9512 118.529C91.5306 119.138 91.3203 119.951 91.3203 120.97C91.3203 122.276 91.6468 123.272 92.2998 123.958C92.9528 124.644 93.8548 124.987 95.0059 124.987C95.5371 124.987 96.0186 124.915 96.4502 124.771C96.8929 124.617 97.2803 124.428 97.6123 124.207C97.9554 123.975 98.2432 123.726 98.4756 123.46C98.708 123.183 98.8851 122.918 99.0068 122.663C99.029 122.243 99.04 121.778 99.04 121.269C99.04 120.748 99.04 120.162 99.04 119.509V116.271ZM112.538 125.801L106.694 113.018C106.484 112.531 106.257 112.066 106.014 111.623C105.77 111.169 105.538 110.765 105.316 110.411C105.106 110.057 104.918 109.764 104.752 109.531C104.586 109.288 104.475 109.133 104.42 109.066V109H108.77V109.066C108.747 109.122 108.731 109.205 108.72 109.315C108.709 109.426 108.703 109.526 108.703 109.614C108.703 109.957 108.753 110.339 108.853 110.76C108.963 111.169 109.162 111.684 109.45 112.304L114.032 122.265L118.216 112.437C118.393 112.027 118.57 111.579 118.747 111.092C118.935 110.605 119.029 110.112 119.029 109.614C119.029 109.47 119.018 109.354 118.996 109.266C118.974 109.166 118.952 109.1 118.93 109.066V109H121.918V109.066C121.719 109.277 121.464 109.653 121.154 110.195C120.855 110.727 120.535 111.396 120.191 112.204L112.272 131.063C112.095 131.473 111.913 131.921 111.725 132.408C111.548 132.895 111.459 133.388 111.459 133.886C111.459 134.03 111.47 134.146 111.492 134.234C111.514 134.334 111.536 134.4 111.559 134.434V134.5H108.454V134.434C108.664 134.223 108.919 133.853 109.218 133.321C109.528 132.801 109.854 132.143 110.197 131.346L112.538 125.801ZM135.467 125.934C135.533 125.701 135.594 125.413 135.649 125.07C135.716 124.727 135.771 124.301 135.815 123.792C135.86 123.283 135.893 122.68 135.915 121.982C135.937 121.274 135.948 120.45 135.948 119.509V108.701C135.948 107.76 135.882 107.013 135.749 106.46C135.616 105.907 135.456 105.48 135.268 105.182C135.09 104.883 134.902 104.667 134.703 104.534C134.515 104.401 134.354 104.28 134.222 104.169V104.103L139.318 102.193V102.26C139.252 102.492 139.186 102.78 139.119 103.123C139.064 103.466 139.014 103.898 138.97 104.418C138.925 104.927 138.892 105.536 138.87 106.244C138.848 106.941 138.837 107.76 138.837 108.701V119.509C138.837 120.45 138.848 121.274 138.87 121.982C138.892 122.68 138.925 123.283 138.97 123.792C139.014 124.301 139.064 124.727 139.119 125.07C139.186 125.413 139.252 125.701 139.318 125.934V126H135.467V125.934ZM146.607 114.229C146.607 115.137 146.724 116.011 146.956 116.853C147.188 117.694 147.509 118.485 147.919 119.227C148.34 119.957 148.843 120.627 149.43 121.235C150.027 121.844 150.686 122.364 151.405 122.796C152.136 123.228 152.916 123.565 153.746 123.809C154.576 124.041 155.445 124.157 156.353 124.157C157.26 124.157 158.129 124.041 158.959 123.809C159.8 123.565 160.58 123.228 161.3 122.796C162.03 122.364 162.689 121.844 163.275 121.235C163.862 120.627 164.366 119.957 164.786 119.227C165.207 118.485 165.533 117.694 165.766 116.853C165.998 116.011 166.114 115.137 166.114 114.229C166.114 112.868 165.86 111.59 165.351 110.395C164.841 109.188 164.144 108.137 163.259 107.24C162.384 106.333 161.355 105.619 160.171 105.099C158.987 104.567 157.714 104.302 156.353 104.302C154.991 104.302 153.718 104.567 152.534 105.099C151.35 105.619 150.315 106.333 149.43 107.24C148.555 108.137 147.864 109.188 147.354 110.395C146.856 111.59 146.607 112.868 146.607 114.229ZM144.018 114.163C144.018 113.034 144.161 111.944 144.449 110.893C144.748 109.841 145.163 108.862 145.694 107.954C146.237 107.035 146.884 106.2 147.637 105.447C148.389 104.695 149.219 104.053 150.127 103.521C151.046 102.979 152.031 102.564 153.082 102.276C154.133 101.978 155.224 101.828 156.353 101.828C157.481 101.828 158.572 101.978 159.623 102.276C160.674 102.564 161.66 102.979 162.578 103.521C163.497 104.053 164.332 104.695 165.085 105.447C165.838 106.2 166.479 107.035 167.011 107.954C167.553 108.862 167.968 109.841 168.256 110.893C168.555 111.944 168.704 113.034 168.704 114.163C168.704 115.303 168.555 116.399 168.256 117.45C167.968 118.491 167.553 119.47 167.011 120.389C166.479 121.307 165.838 122.143 165.085 122.896C164.332 123.648 163.497 124.296 162.578 124.838C161.66 125.369 160.674 125.779 159.623 126.066C158.572 126.365 157.481 126.515 156.353 126.515C155.224 126.515 154.133 126.365 153.082 126.066C152.031 125.779 151.046 125.369 150.127 124.838C149.219 124.296 148.389 123.648 147.637 122.896C146.884 122.143 146.237 121.307 145.694 120.389C145.163 119.47 144.748 118.491 144.449 117.45C144.161 116.399 144.018 115.303 144.018 114.163ZM174.034 108.12C174.034 108.718 174.145 109.277 174.366 109.797C174.588 110.317 174.886 110.776 175.263 111.175C175.65 111.562 176.098 111.872 176.607 112.104C177.128 112.326 177.687 112.437 178.284 112.437C178.893 112.437 179.452 112.326 179.961 112.104C180.481 111.872 180.929 111.562 181.306 111.175C181.693 110.776 181.992 110.317 182.202 109.797C182.424 109.277 182.534 108.718 182.534 108.12C182.534 107.511 182.424 106.941 182.202 106.41C181.992 105.879 181.693 105.414 181.306 105.016C180.929 104.617 180.481 104.307 179.961 104.086C179.452 103.854 178.893 103.737 178.284 103.737C177.687 103.737 177.128 103.854 176.607 104.086C176.098 104.307 175.65 104.617 175.263 105.016C174.886 105.414 174.588 105.879 174.366 106.41C174.145 106.941 174.034 107.511 174.034 108.12ZM172.025 108.087C172.025 107.224 172.191 106.41 172.523 105.646C172.855 104.883 173.304 104.219 173.868 103.654C174.433 103.079 175.091 102.625 175.844 102.293C176.607 101.961 177.421 101.795 178.284 101.795C179.147 101.795 179.961 101.961 180.725 102.293C181.488 102.625 182.152 103.079 182.717 103.654C183.292 104.219 183.746 104.883 184.078 105.646C184.41 106.41 184.576 107.224 184.576 108.087C184.576 108.95 184.41 109.764 184.078 110.527C183.746 111.28 183.292 111.938 182.717 112.503C182.152 113.067 181.488 113.516 180.725 113.848C179.961 114.18 179.147 114.346 178.284 114.346C177.421 114.346 176.607 114.18 175.844 113.848C175.091 113.516 174.433 113.067 173.868 112.503C173.304 111.938 172.855 111.28 172.523 110.527C172.191 109.764 172.025 108.95 172.025 108.087ZM192.263 101.596L193.624 102.476L177.637 126.88L176.275 126L192.263 101.596ZM187.631 120.289C187.631 120.887 187.742 121.446 187.963 121.966C188.184 122.486 188.483 122.945 188.859 123.344C189.247 123.731 189.695 124.041 190.204 124.273C190.724 124.495 191.283 124.605 191.881 124.605C192.49 124.605 193.049 124.495 193.558 124.273C194.078 124.041 194.526 123.731 194.902 123.344C195.29 122.945 195.589 122.486 195.799 121.966C196.02 121.446 196.131 120.887 196.131 120.289C196.131 119.691 196.02 119.127 195.799 118.596C195.589 118.064 195.29 117.6 194.902 117.201C194.526 116.803 194.078 116.487 193.558 116.255C193.049 116.022 192.49 115.906 191.881 115.906C191.283 115.906 190.724 116.022 190.204 116.255C189.695 116.487 189.247 116.803 188.859 117.201C188.483 117.6 188.184 118.064 187.963 118.596C187.742 119.127 187.631 119.691 187.631 120.289ZM185.639 120.256C185.639 119.393 185.805 118.579 186.137 117.815C186.469 117.052 186.917 116.388 187.481 115.823C188.046 115.248 188.704 114.794 189.457 114.462C190.221 114.13 191.029 113.964 191.881 113.964C192.744 113.964 193.558 114.13 194.321 114.462C195.085 114.794 195.749 115.248 196.313 115.823C196.889 116.388 197.343 117.052 197.675 117.815C198.007 118.579 198.173 119.393 198.173 120.256C198.173 121.119 198.007 121.933 197.675 122.696C197.343 123.449 196.889 124.107 196.313 124.672C195.749 125.236 195.085 125.685 194.321 126.017C193.558 126.349 192.744 126.515 191.881 126.515C191.029 126.515 190.221 126.349 189.457 126.017C188.704 125.685 188.046 125.236 187.481 124.672C186.917 124.107 186.469 123.449 186.137 122.696C185.805 121.933 185.639 121.119 185.639 120.256ZM223.808 101.795C225.656 101.795 227.36 102.099 228.921 102.708C230.493 103.306 231.848 104.152 232.988 105.248C234.128 106.333 235.019 107.639 235.661 109.166C236.303 110.693 236.624 112.381 236.624 114.229C236.624 115.281 236.502 116.316 236.259 117.334C236.015 118.352 235.656 119.315 235.18 120.223C234.715 121.13 234.139 121.971 233.453 122.746C232.767 123.51 231.981 124.174 231.096 124.738C230.221 125.292 229.253 125.723 228.19 126.033C227.128 126.354 225.982 126.515 224.754 126.515C222.906 126.515 221.196 126.221 219.624 125.635C218.063 125.037 216.713 124.196 215.573 123.111C214.433 122.027 213.542 120.726 212.9 119.21C212.258 117.683 211.938 115.989 211.938 114.13C211.938 113.078 212.059 112.044 212.303 111.025C212.546 110.007 212.9 109.039 213.365 108.12C213.841 107.201 214.417 106.36 215.092 105.597C215.778 104.822 216.558 104.152 217.433 103.588C218.318 103.023 219.292 102.586 220.354 102.276C221.428 101.955 222.579 101.795 223.808 101.795ZM224.754 125.021C225.982 125.021 227.106 124.799 228.124 124.356C229.142 123.914 230.017 123.272 230.747 122.431C231.489 121.59 232.064 120.566 232.474 119.359C232.883 118.142 233.088 116.764 233.088 115.226C233.088 113.521 232.889 111.944 232.49 110.494C232.103 109.033 231.522 107.771 230.747 106.709C229.972 105.635 229.004 104.8 227.842 104.202C226.691 103.593 225.346 103.289 223.808 103.289C222.579 103.289 221.456 103.51 220.438 103.953C219.419 104.385 218.539 105.016 217.798 105.846C217.067 106.676 216.497 107.694 216.088 108.9C215.678 110.107 215.474 111.479 215.474 113.018C215.474 114.711 215.667 116.294 216.055 117.766C216.442 119.227 217.023 120.494 217.798 121.567C218.573 122.641 219.541 123.488 220.703 124.107C221.865 124.716 223.215 125.021 224.754 125.021ZM244.129 119.509C244.129 120.45 244.14 121.274 244.162 121.982C244.195 122.68 244.229 123.283 244.262 123.792C244.306 124.301 244.356 124.727 244.411 125.07C244.478 125.413 244.544 125.701 244.61 125.934V126H240.626V125.934C240.692 125.701 240.753 125.413 240.809 125.07C240.875 124.727 240.93 124.301 240.975 123.792C241.019 123.283 241.052 122.68 241.074 121.982C241.096 121.274 241.107 120.45 241.107 119.509V108.701C241.107 107.76 241.096 106.941 241.074 106.244C241.052 105.536 241.019 104.927 240.975 104.418C240.93 103.898 240.875 103.466 240.809 103.123C240.753 102.78 240.692 102.492 240.626 102.26V102.193C241.545 102.193 242.474 102.193 243.415 102.193C244.356 102.182 245.269 102.177 246.154 102.177C247.04 102.166 247.881 102.155 248.678 102.144C249.475 102.121 250.194 102.105 250.836 102.094C251.478 102.072 252.02 102.049 252.463 102.027C252.906 101.994 253.221 101.961 253.409 101.928L252.596 104.136C252.23 104.036 251.804 103.948 251.317 103.87C250.897 103.804 250.382 103.743 249.773 103.688C249.176 103.621 248.484 103.588 247.698 103.588C247.433 103.588 247.101 103.599 246.702 103.621C246.304 103.632 245.911 103.649 245.523 103.671C245.081 103.693 244.616 103.715 244.129 103.737V112.121C245.269 112.11 246.315 112.077 247.267 112.021C248.218 111.966 249.037 111.911 249.724 111.855C250.521 111.789 251.24 111.712 251.882 111.623L251.384 114.03C250.554 113.931 249.713 113.837 248.86 113.748C248.13 113.671 247.344 113.604 246.503 113.549C245.662 113.482 244.87 113.449 244.129 113.449V119.509ZM260.217 119.509C260.217 120.45 260.228 121.274 260.25 121.982C260.283 122.68 260.316 123.283 260.35 123.792C260.394 124.301 260.444 124.727 260.499 125.07C260.565 125.413 260.632 125.701 260.698 125.934V126H256.714V125.934C256.78 125.701 256.841 125.413 256.896 125.07C256.963 124.727 257.018 124.301 257.062 123.792C257.107 123.283 257.14 122.68 257.162 121.982C257.184 121.274 257.195 120.45 257.195 119.509V108.701C257.195 107.76 257.184 106.941 257.162 106.244C257.14 105.536 257.107 104.927 257.062 104.418C257.018 103.898 256.963 103.466 256.896 103.123C256.841 102.78 256.78 102.492 256.714 102.26V102.193C257.632 102.193 258.562 102.193 259.503 102.193C260.444 102.182 261.357 102.177 262.242 102.177C263.128 102.166 263.969 102.155 264.766 102.144C265.562 102.121 266.282 102.105 266.924 102.094C267.566 102.072 268.108 102.049 268.551 102.027C268.993 101.994 269.309 101.961 269.497 101.928L268.684 104.136C268.318 104.036 267.892 103.948 267.405 103.87C266.985 103.804 266.47 103.743 265.861 103.688C265.264 103.621 264.572 103.588 263.786 103.588C263.521 103.588 263.188 103.599 262.79 103.621C262.392 103.632 261.999 103.649 261.611 103.671C261.169 103.693 260.704 103.715 260.217 103.737V112.121C261.357 112.11 262.403 112.077 263.354 112.021C264.306 111.966 265.125 111.911 265.812 111.855C266.608 111.789 267.328 111.712 267.97 111.623L267.472 114.03C266.642 113.931 265.8 113.837 264.948 113.748C264.218 113.671 263.432 113.604 262.591 113.549C261.75 113.482 260.958 113.449 260.217 113.449V119.509ZM272.802 124.539C272.802 124.296 272.846 124.069 272.935 123.858C273.034 123.637 273.161 123.449 273.316 123.294C273.471 123.128 273.654 123.001 273.864 122.912C274.086 122.812 274.324 122.763 274.578 122.763C274.833 122.763 275.065 122.812 275.275 122.912C275.497 123.001 275.685 123.128 275.84 123.294C276.006 123.449 276.133 123.637 276.222 123.858C276.321 124.069 276.371 124.296 276.371 124.539C276.371 125.048 276.2 125.474 275.856 125.817C275.513 126.16 275.087 126.332 274.578 126.332C274.324 126.332 274.086 126.282 273.864 126.183C273.654 126.094 273.471 125.972 273.316 125.817C273.161 125.651 273.034 125.463 272.935 125.253C272.846 125.032 272.802 124.794 272.802 124.539ZM274.263 120.555C274.052 118.064 273.87 115.906 273.715 114.08C273.571 112.254 273.444 110.688 273.333 109.382C273.233 108.076 273.145 107.002 273.067 106.161C272.99 105.309 272.924 104.623 272.868 104.103C272.824 103.571 272.78 103.173 272.735 102.907C272.691 102.631 272.647 102.415 272.603 102.26V102.193H276.554V102.26C276.509 102.415 276.465 102.631 276.421 102.907C276.377 103.173 276.327 103.571 276.271 104.103C276.216 104.623 276.15 105.309 276.072 106.161C276.006 107.002 275.917 108.076 275.807 109.382C275.696 110.688 275.563 112.254 275.408 114.08C275.264 115.906 275.087 118.064 274.877 120.555H274.263Z" fill="black" fill-opacity="0.87"/>
</svg>
